<mxfile host="65bd71144e">
    <diagram id="5aFXGZBqEW8nUW368f_2" name="SCALE FROM ZERO TO MILLIONS OF USERS">
        <mxGraphModel dx="-191" dy="636" grid="0" gridSize="10" guides="1" tooltips="1" connect="1" arrows="1" fold="1" page="1" pageScale="1" pageWidth="1100" pageHeight="850" background="none" math="0" shadow="0">
            <root>
                <mxCell id="0"/>
                <mxCell id="1" parent="0"/>
                <mxCell id="19" value="" style="rounded=1;whiteSpace=wrap;html=1;fontSize=13;fontColor=#FFFFFF;dashed=1;movable=0;resizable=0;rotatable=0;deletable=0;editable=0;connectable=0;" parent="1" vertex="1">
                    <mxGeometry x="1196" y="272" width="299" height="202" as="geometry"/>
                </mxCell>
                <mxCell id="5" value="&lt;meta charset=&quot;utf-8&quot;&gt;&lt;p style=&quot;border-color: rgb(0, 0, 0); font-size: 13px;&quot; class=&quot;p1&quot;&gt;&lt;font style=&quot;border-color: rgb(0, 0, 0); font-size: 13px;&quot;&gt;&lt;span style=&quot;border-color: rgb(0, 0, 0);&quot;&gt;&lt;i style=&quot;border-color: rgb(0, 0, 0);&quot;&gt;&lt;font style=&quot;border-color: rgb(0, 0, 0); font-size: 13px;&quot;&gt;&lt;br class=&quot;Apple-interchange-newline&quot;&gt;SCALE FROM ZERO TO MILLIONS OF&amp;nbsp;&lt;/font&gt;&lt;/i&gt;&lt;i style=&quot;border-color: rgb(0, 0, 0); background-color: initial;&quot;&gt;&lt;font style=&quot;border-color: rgb(0, 0, 0); font-size: 13px;&quot;&gt;USERS&lt;/font&gt;&lt;/i&gt;&lt;/span&gt;&lt;/font&gt;&lt;/p&gt;&lt;font style=&quot;border-color: rgb(0, 0, 0);&quot;&gt;&lt;div style=&quot;border-color: rgb(0, 0, 0);&quot;&gt;&lt;span style=&quot;border-color: rgb(0, 0, 0); font-size: 13px;&quot;&gt;&lt;span style=&quot;border-color: rgb(0, 0, 0);&quot;&gt;&lt;br style=&quot;border-color: rgb(0, 0, 0);&quot;&gt;&lt;/span&gt;&lt;/span&gt;&lt;/div&gt;&lt;div style=&quot;border-color: rgb(0, 0, 0);&quot;&gt;&lt;br style=&quot;border-color: rgb(0, 0, 0); color: rgb(255, 255, 255); font-family: Helvetica; font-size: 12px; font-style: normal; font-variant-ligatures: normal; font-variant-caps: normal; font-weight: 700; letter-spacing: normal; orphans: 2; text-align: center; text-indent: 0px; text-transform: none; widows: 2; word-spacing: 0px; -webkit-text-stroke-width: 0px; background-color: rgb(42, 37, 47); text-decoration-thickness: initial; text-decoration-style: initial; text-decoration-color: initial;&quot;&gt;&lt;/div&gt;&lt;/font&gt;" style="text;html=1;strokeColor=none;fillColor=none;align=center;verticalAlign=middle;whiteSpace=wrap;rounded=0;fontSize=13;fontColor=#FFFFFF;movable=0;resizable=0;rotatable=0;deletable=0;editable=0;connectable=0;" parent="1" vertex="1">
                    <mxGeometry x="1200.5" y="56" width="303" height="19" as="geometry"/>
                </mxCell>
                <mxCell id="77" style="edgeStyle=none;jumpSize=1;html=1;exitX=1;exitY=0.5;exitDx=0;exitDy=0;strokeWidth=1;fontSize=10;fontColor=#FFFFFF;startArrow=none;startFill=0;endArrow=classic;endFill=1;startSize=0;endSize=0;movable=0;resizable=0;rotatable=0;deletable=0;editable=0;connectable=0;" parent="1" source="41" target="35" edge="1">
                    <mxGeometry relative="1" as="geometry"/>
                </mxCell>
                <mxCell id="41" value="" style="rounded=1;whiteSpace=wrap;html=1;dashed=1;fontSize=13;fontColor=#FFFFFF;movable=0;resizable=0;rotatable=0;deletable=0;editable=0;connectable=0;" parent="1" vertex="1">
                    <mxGeometry x="1214" y="286" width="115" height="65" as="geometry"/>
                </mxCell>
                <mxCell id="12" style="edgeStyle=none;html=1;exitX=1;exitY=0.5;exitDx=0;exitDy=0;fontSize=13;fontColor=#FFFFFF;movable=0;resizable=0;rotatable=0;deletable=0;editable=0;connectable=0;" parent="1" source="6" target="10" edge="1">
                    <mxGeometry relative="1" as="geometry"/>
                </mxCell>
                <mxCell id="83" style="edgeStyle=none;jumpSize=1;html=1;exitX=0.25;exitY=1;exitDx=0;exitDy=0;entryX=0.5;entryY=0;entryDx=0;entryDy=0;entryPerimeter=0;strokeWidth=1;fontSize=10;fontColor=#FFFFFF;startArrow=none;startFill=0;endArrow=classic;endFill=1;startSize=0;endSize=0;movable=0;resizable=0;rotatable=0;deletable=0;editable=0;connectable=0;" parent="1" source="6" target="16" edge="1">
                    <mxGeometry relative="1" as="geometry"/>
                </mxCell>
                <mxCell id="84" value="" style="edgeStyle=none;jumpSize=1;html=1;exitX=0.75;exitY=1;exitDx=0;exitDy=0;entryX=0.5;entryY=0;entryDx=0;entryDy=0;entryPerimeter=0;strokeWidth=1;fontSize=5;fontColor=#FFFFFF;startArrow=none;startFill=0;endArrow=classic;endFill=1;startSize=0;endSize=0;movable=0;resizable=0;rotatable=0;deletable=0;editable=0;connectable=0;" parent="1" source="6" target="16" edge="1">
                    <mxGeometry x="-0.1506" y="5" relative="1" as="geometry">
                        <mxPoint as="offset"/>
                    </mxGeometry>
                </mxCell>
                <mxCell id="6" value="User" style="rounded=1;whiteSpace=wrap;html=1;fontSize=13;fontColor=#FFFFFF;movable=0;resizable=0;rotatable=0;deletable=0;editable=0;connectable=0;" parent="1" vertex="1">
                    <mxGeometry x="1458" y="86" width="107" height="60" as="geometry"/>
                </mxCell>
                <mxCell id="15" style="edgeStyle=none;html=1;fontSize=13;fontColor=#FFFFFF;movable=0;resizable=0;rotatable=0;deletable=0;editable=0;connectable=0;" parent="1" source="8" target="38" edge="1">
                    <mxGeometry relative="1" as="geometry">
                        <mxPoint x="1416" y="116" as="targetPoint"/>
                    </mxGeometry>
                </mxCell>
                <mxCell id="8" value="" style="sketch=0;pointerEvents=1;shadow=0;dashed=0;html=1;strokeColor=none;fillColor=#005F4B;labelPosition=center;verticalLabelPosition=bottom;verticalAlign=top;align=center;outlineConnect=0;shape=mxgraph.veeam2.laptop;fontSize=13;fontColor=#FFFFFF;movable=0;resizable=0;rotatable=0;deletable=0;editable=0;connectable=0;" parent="1" vertex="1">
                    <mxGeometry x="1460" y="104" width="35" height="24" as="geometry"/>
                </mxCell>
                <mxCell id="9" value="" style="html=1;verticalLabelPosition=bottom;align=center;labelBackgroundColor=#ffffff;verticalAlign=top;strokeWidth=2;strokeColor=#0080F0;shadow=0;dashed=0;shape=mxgraph.ios7.icons.smartphone;fontSize=13;fontColor=#FFFFFF;movable=0;resizable=0;rotatable=0;deletable=0;editable=0;connectable=0;" parent="1" vertex="1">
                    <mxGeometry x="1538" y="101" width="18" height="30" as="geometry"/>
                </mxCell>
                <mxCell id="10" value="CDN" style="aspect=fixed;html=1;points=[];align=center;image;fontSize=12;image=img/lib/azure2/app_services/CDN_Profiles.svg;fontColor=#FFFFFF;movable=0;resizable=0;rotatable=0;deletable=0;editable=0;connectable=0;" parent="1" vertex="1">
                    <mxGeometry x="1619" y="104" width="44" height="25.88" as="geometry"/>
                </mxCell>
                <mxCell id="79" style="edgeStyle=none;jumpSize=1;html=1;exitX=0.5;exitY=1;exitDx=0;exitDy=0;exitPerimeter=0;entryX=0.5;entryY=0;entryDx=0;entryDy=0;strokeWidth=1;fontSize=10;fontColor=#FFFFFF;startArrow=none;startFill=0;endArrow=classic;endFill=1;startSize=0;endSize=0;movable=0;resizable=0;rotatable=0;deletable=0;editable=0;connectable=0;" parent="1" source="16" target="19" edge="1">
                    <mxGeometry relative="1" as="geometry"/>
                </mxCell>
                <mxCell id="132" value="Geo-routed" style="edgeLabel;html=1;align=center;verticalAlign=middle;resizable=0;points=[];fontSize=10;fontFamily=Helvetica;fontColor=#FFFFFF;movable=0;rotatable=0;deletable=0;editable=0;connectable=0;" parent="79" vertex="1" connectable="0">
                    <mxGeometry x="-0.0674" relative="1" as="geometry">
                        <mxPoint as="offset"/>
                    </mxGeometry>
                </mxCell>
                <mxCell id="131" style="edgeStyle=none;jumpSize=1;html=1;exitX=0.5;exitY=1;exitDx=0;exitDy=0;exitPerimeter=0;entryX=0.5;entryY=0;entryDx=0;entryDy=0;strokeWidth=1;fontFamily=Helvetica;fontSize=11;fontColor=#FFFFFF;startArrow=none;startFill=0;endArrow=classic;endFill=1;startSize=0;endSize=0;movable=0;resizable=0;rotatable=0;deletable=0;editable=0;connectable=0;" parent="1" source="16" target="97" edge="1">
                    <mxGeometry relative="1" as="geometry"/>
                </mxCell>
                <mxCell id="133" value="Geo-routed" style="edgeLabel;html=1;align=center;verticalAlign=middle;resizable=0;points=[];fontSize=10;fontFamily=Helvetica;fontColor=#FFFFFF;movable=0;rotatable=0;deletable=0;editable=0;connectable=0;" parent="131" vertex="1" connectable="0">
                    <mxGeometry x="-0.1933" relative="1" as="geometry">
                        <mxPoint as="offset"/>
                    </mxGeometry>
                </mxCell>
                <mxCell id="16" value="" style="verticalLabelPosition=bottom;html=1;verticalAlign=top;align=center;strokeColor=none;fillColor=#00BEF2;shape=mxgraph.azure.azure_load_balancer;fontSize=13;fontColor=#FFFFFF;movable=0;resizable=0;rotatable=0;deletable=0;editable=0;connectable=0;" parent="1" vertex="1">
                    <mxGeometry x="1491.5" y="187" width="40.5" height="26" as="geometry"/>
                </mxCell>
                <mxCell id="28" value="" style="outlineConnect=0;dashed=0;verticalLabelPosition=bottom;verticalAlign=top;align=center;html=1;shape=mxgraph.aws3.cache_node;fillColor=#2E73B8;gradientColor=none;fontSize=13;fontColor=#FFFFFF;movable=0;resizable=0;rotatable=0;deletable=0;editable=0;connectable=0;" parent="1" vertex="1">
                    <mxGeometry x="1348.5" y="383" width="30" height="25.5" as="geometry"/>
                </mxCell>
                <mxCell id="35" value="" style="strokeWidth=2;html=1;shape=mxgraph.flowchart.direct_data;whiteSpace=wrap;dashed=1;fontSize=13;fontColor=#FFFFFF;rotation=0;flipH=1;movable=0;resizable=0;rotatable=0;deletable=0;editable=0;connectable=0;" parent="1" vertex="1">
                    <mxGeometry x="1392.5" y="297.42" width="87.5" height="39.62" as="geometry"/>
                </mxCell>
                <mxCell id="32" value="" style="html=1;verticalLabelPosition=bottom;align=center;labelBackgroundColor=#ffffff;verticalAlign=top;strokeWidth=2;strokeColor=#0080F0;shadow=0;dashed=0;shape=mxgraph.ios7.icons.mail;fontSize=13;fontColor=#FFFFFF;movable=0;resizable=0;rotatable=0;deletable=0;editable=0;connectable=0;" parent="1" vertex="1">
                    <mxGeometry x="1414" y="311.48" width="16" height="9.52" as="geometry"/>
                </mxCell>
                <mxCell id="38" value="" style="sketch=0;aspect=fixed;html=1;points=[];align=center;image;fontSize=12;image=img/lib/mscae/DNS.svg;dashed=1;fontColor=#FFFFFF;movable=0;resizable=0;rotatable=0;deletable=0;editable=0;connectable=0;" parent="1" vertex="1">
                    <mxGeometry x="1374" y="94.5" width="43" height="43" as="geometry"/>
                </mxCell>
                <mxCell id="39" value="" style="sketch=0;pointerEvents=1;shadow=0;dashed=0;html=1;strokeColor=none;labelPosition=center;verticalLabelPosition=bottom;verticalAlign=top;outlineConnect=0;align=center;shape=mxgraph.office.servers.physical_host_farm;fillColor=#2072B8;fontSize=13;fontColor=#FFFFFF;movable=0;resizable=0;rotatable=0;deletable=0;editable=0;connectable=0;" parent="1" vertex="1">
                    <mxGeometry x="1243.5" y="289" width="56" height="41.96" as="geometry"/>
                </mxCell>
                <mxCell id="70" style="edgeStyle=none;jumpSize=1;html=1;exitX=0.5;exitY=1;exitDx=0;exitDy=0;entryX=0.5;entryY=0;entryDx=0;entryDy=0;strokeWidth=1;fontSize=3;fontColor=#FFFFFF;startArrow=none;startFill=0;endArrow=classic;endFill=1;startSize=0;endSize=0;movable=0;resizable=0;rotatable=0;deletable=0;editable=0;connectable=0;" parent="1" source="42" target="62" edge="1">
                    <mxGeometry relative="1" as="geometry"/>
                </mxCell>
                <mxCell id="71" style="edgeStyle=none;jumpSize=1;html=1;exitX=0.5;exitY=1;exitDx=0;exitDy=0;entryX=0.5;entryY=0;entryDx=0;entryDy=0;strokeWidth=1;fontSize=3;fontColor=#FFFFFF;startArrow=none;startFill=0;endArrow=classic;endFill=1;startSize=0;endSize=0;movable=0;resizable=0;rotatable=0;deletable=0;editable=0;connectable=0;" parent="1" source="42" target="66" edge="1">
                    <mxGeometry relative="1" as="geometry"/>
                </mxCell>
                <mxCell id="72" style="edgeStyle=none;jumpSize=1;html=1;exitX=0.5;exitY=1;exitDx=0;exitDy=0;strokeWidth=1;fontSize=3;fontColor=#FFFFFF;startArrow=none;startFill=0;endArrow=classic;endFill=1;startSize=0;endSize=0;movable=0;resizable=0;rotatable=0;deletable=0;editable=0;connectable=0;" parent="1" source="42" target="63" edge="1">
                    <mxGeometry relative="1" as="geometry"/>
                </mxCell>
                <mxCell id="42" value="Web Servers" style="text;html=1;strokeColor=none;fillColor=none;align=center;verticalAlign=middle;whiteSpace=wrap;rounded=0;dashed=1;fontSize=7;fontColor=#FFFFFF;movable=0;resizable=0;rotatable=0;deletable=0;editable=0;connectable=0;" parent="1" vertex="1">
                    <mxGeometry x="1241.5" y="322.98" width="60" height="30" as="geometry"/>
                </mxCell>
                <mxCell id="62" value="" style="rounded=1;whiteSpace=wrap;html=1;fontSize=13;fontColor=#FFFFFF;movable=0;resizable=0;rotatable=0;deletable=0;editable=0;connectable=0;strokeColor=default;" parent="1" vertex="1">
                    <mxGeometry x="1213" y="377" width="117" height="65" as="geometry"/>
                </mxCell>
                <mxCell id="57" style="edgeStyle=none;html=1;exitX=1;exitY=0.5;exitDx=0;exitDy=0;exitPerimeter=0;entryX=0;entryY=0.5;entryDx=0;entryDy=0;entryPerimeter=0;fontSize=5;fontColor=#FFFFFF;strokeWidth=1;endArrow=classic;endFill=1;startArrow=classic;startFill=1;jumpSize=1;startSize=0;endSize=0;movable=0;resizable=0;rotatable=0;deletable=0;editable=0;connectable=0;" parent="1" source="43" target="48" edge="1">
                    <mxGeometry relative="1" as="geometry"/>
                </mxCell>
                <mxCell id="58" style="edgeStyle=none;html=1;fontSize=5;fontColor=#FFFFFF;strokeWidth=1;endArrow=classic;endFill=1;startArrow=classic;startFill=1;jumpSize=1;startSize=0;endSize=0;entryX=0;entryY=0.5;entryDx=0;entryDy=0;entryPerimeter=0;exitX=1;exitY=0.5;exitDx=0;exitDy=0;exitPerimeter=0;movable=0;resizable=0;rotatable=0;deletable=0;editable=0;connectable=0;" parent="1" source="48" target="50" edge="1">
                    <mxGeometry relative="1" as="geometry">
                        <mxPoint x="1276" y="407" as="sourcePoint"/>
                        <mxPoint x="1293" y="407" as="targetPoint"/>
                    </mxGeometry>
                </mxCell>
                <mxCell id="60" value="Replicate" style="text;html=1;strokeColor=none;fillColor=none;align=center;verticalAlign=middle;whiteSpace=wrap;rounded=0;dashed=1;fontSize=3;fontColor=#FFFFFF;movable=0;resizable=0;rotatable=0;deletable=0;editable=0;connectable=0;" parent="1" vertex="1">
                    <mxGeometry x="1277.5" y="395" width="24" height="11" as="geometry"/>
                </mxCell>
                <mxCell id="43" value="" style="verticalLabelPosition=bottom;html=1;verticalAlign=top;align=center;strokeColor=none;fillColor=#00BEF2;shape=mxgraph.azure.database;dashed=1;fontSize=10;fontColor=#FFFFFF;movable=0;resizable=0;rotatable=0;deletable=0;editable=0;connectable=0;" parent="1" vertex="1">
                    <mxGeometry x="1222.5" y="397" width="16.5" height="18" as="geometry"/>
                </mxCell>
                <mxCell id="66" value="" style="rounded=1;whiteSpace=wrap;html=1;fontSize=13;fontColor=#FFFFFF;movable=0;resizable=0;rotatable=0;deletable=0;editable=0;connectable=0;strokeColor=default;" parent="1" vertex="1">
                    <mxGeometry x="1335" y="377" width="67" height="63" as="geometry"/>
                </mxCell>
                <mxCell id="44" value="Slave DB" style="text;html=1;strokeColor=none;fillColor=none;align=center;verticalAlign=middle;whiteSpace=wrap;rounded=0;dashed=1;fontSize=5;fontColor=#FFFFFF;movable=0;resizable=0;rotatable=0;deletable=0;editable=0;connectable=0;" parent="1" vertex="1">
                    <mxGeometry x="1213" y="413" width="37" height="14" as="geometry"/>
                </mxCell>
                <mxCell id="48" value="" style="verticalLabelPosition=bottom;html=1;verticalAlign=top;align=center;strokeColor=none;fillColor=#00BEF2;shape=mxgraph.azure.database;dashed=1;fontSize=10;fontColor=#FFFFFF;movable=0;resizable=0;rotatable=0;deletable=0;editable=0;connectable=0;" parent="1" vertex="1">
                    <mxGeometry x="1263.25" y="397" width="16.5" height="18" as="geometry"/>
                </mxCell>
                <mxCell id="49" value="Master DB" style="text;html=1;strokeColor=none;fillColor=none;align=center;verticalAlign=middle;whiteSpace=wrap;rounded=0;dashed=1;fontSize=5;fontColor=#FFFFFF;movable=0;resizable=0;rotatable=0;deletable=0;editable=0;connectable=0;" parent="1" vertex="1">
                    <mxGeometry x="1253" y="413" width="37" height="14" as="geometry"/>
                </mxCell>
                <mxCell id="50" value="" style="verticalLabelPosition=bottom;html=1;verticalAlign=top;align=center;strokeColor=none;fillColor=#00BEF2;shape=mxgraph.azure.database;dashed=1;fontSize=10;fontColor=#FFFFFF;movable=0;resizable=0;rotatable=0;deletable=0;editable=0;connectable=0;" parent="1" vertex="1">
                    <mxGeometry x="1301.5" y="397" width="16.5" height="18" as="geometry"/>
                </mxCell>
                <mxCell id="69" value="" style="rounded=1;whiteSpace=wrap;html=1;fontSize=13;fontColor=#FFFFFF;movable=0;resizable=0;rotatable=0;deletable=0;editable=0;connectable=0;strokeColor=default;dashed=1;" parent="1" vertex="1">
                    <mxGeometry x="1409" y="377" width="67" height="63" as="geometry"/>
                </mxCell>
                <mxCell id="51" value="Slave DB" style="text;html=1;strokeColor=none;fillColor=none;align=center;verticalAlign=middle;whiteSpace=wrap;rounded=0;dashed=1;fontSize=5;fontColor=#FFFFFF;movable=0;resizable=0;rotatable=0;deletable=0;editable=0;connectable=0;" parent="1" vertex="1">
                    <mxGeometry x="1292" y="413" width="37" height="14" as="geometry"/>
                </mxCell>
                <mxCell id="59" value="Replicate" style="text;html=1;strokeColor=none;fillColor=none;align=center;verticalAlign=middle;whiteSpace=wrap;rounded=0;dashed=1;fontSize=3;fontColor=#FFFFFF;movable=0;resizable=0;rotatable=0;deletable=0;editable=0;connectable=0;" parent="1" vertex="1">
                    <mxGeometry x="1239.25" y="395" width="24" height="11" as="geometry"/>
                </mxCell>
                <mxCell id="63" value="NoSQL" style="sketch=0;aspect=fixed;html=1;points=[];align=center;image;fontSize=10;image=img/lib/mscae/Database_General.svg;strokeColor=default;fontColor=#FFFFFF;movable=0;resizable=0;rotatable=0;deletable=0;editable=0;connectable=0;" parent="1" vertex="1">
                    <mxGeometry x="1497" y="482" width="20" height="26.31" as="geometry"/>
                </mxCell>
                <mxCell id="64" value="" style="outlineConnect=0;dashed=0;verticalLabelPosition=bottom;verticalAlign=top;align=center;html=1;shape=mxgraph.aws3.cache_node;fillColor=#2E73B8;gradientColor=none;fontSize=13;fontColor=#FFFFFF;movable=0;resizable=0;rotatable=0;deletable=0;editable=0;connectable=0;" parent="1" vertex="1">
                    <mxGeometry x="1341.5" y="385.09000000000003" width="21" height="19.75" as="geometry"/>
                </mxCell>
                <mxCell id="67" value="" style="outlineConnect=0;dashed=0;verticalLabelPosition=bottom;verticalAlign=top;align=center;html=1;shape=mxgraph.aws3.cache_node;fillColor=#2E73B8;gradientColor=none;fontSize=13;fontColor=#FFFFFF;movable=0;resizable=0;rotatable=0;deletable=0;editable=0;connectable=0;" parent="1" vertex="1">
                    <mxGeometry x="1357.5" y="396.15000000000003" width="21" height="19.75" as="geometry"/>
                </mxCell>
                <mxCell id="68" value="" style="outlineConnect=0;dashed=0;verticalLabelPosition=bottom;verticalAlign=top;align=center;html=1;shape=mxgraph.aws3.cache_node;fillColor=#2E73B8;gradientColor=none;fontSize=13;fontColor=#FFFFFF;movable=0;resizable=0;rotatable=0;deletable=0;editable=0;connectable=0;" parent="1" vertex="1">
                    <mxGeometry x="1374" y="410.12000000000006" width="21" height="19.75" as="geometry"/>
                </mxCell>
                <mxCell id="40" value="" style="sketch=0;pointerEvents=1;shadow=0;dashed=0;html=1;strokeColor=none;labelPosition=center;verticalLabelPosition=bottom;verticalAlign=top;outlineConnect=0;align=center;shape=mxgraph.office.servers.physical_host_farm;fillColor=#2072B8;fontSize=13;fontColor=#FFFFFF;movable=0;resizable=0;rotatable=0;deletable=0;editable=0;connectable=0;" parent="1" vertex="1">
                    <mxGeometry x="1415" y="380.87" width="56" height="49" as="geometry"/>
                </mxCell>
                <mxCell id="78" style="edgeStyle=none;jumpSize=1;html=1;exitX=0.5;exitY=1;exitDx=0;exitDy=0;entryX=0.5;entryY=0;entryDx=0;entryDy=0;strokeWidth=1;fontSize=10;fontColor=#FFFFFF;startArrow=none;startFill=0;endArrow=classic;endFill=1;startSize=0;endSize=0;movable=0;resizable=0;rotatable=0;deletable=0;editable=0;connectable=0;" parent="1" source="73" target="69" edge="1">
                    <mxGeometry relative="1" as="geometry"/>
                </mxCell>
                <mxCell id="73" value="Message Queue" style="text;html=1;strokeColor=none;fillColor=none;align=center;verticalAlign=middle;whiteSpace=wrap;rounded=0;dashed=1;fontSize=5;fontColor=#FFFFFF;movable=0;resizable=0;rotatable=0;deletable=0;editable=0;connectable=0;" parent="1" vertex="1">
                    <mxGeometry x="1417" y="322.98" width="41.75" height="13.98" as="geometry"/>
                </mxCell>
                <mxCell id="74" value="Workers" style="text;html=1;strokeColor=none;fillColor=none;align=center;verticalAlign=middle;whiteSpace=wrap;rounded=0;dashed=1;fontSize=5;fontColor=#FFFFFF;movable=0;resizable=0;rotatable=0;deletable=0;editable=0;connectable=0;" parent="1" vertex="1">
                    <mxGeometry x="1412.5" y="424" width="60" height="21" as="geometry"/>
                </mxCell>
                <mxCell id="75" value="" style="html=1;verticalLabelPosition=bottom;align=center;labelBackgroundColor=#ffffff;verticalAlign=top;strokeWidth=2;strokeColor=#0080F0;shadow=0;dashed=0;shape=mxgraph.ios7.icons.mail;fontSize=13;fontColor=#FFFFFF;movable=0;resizable=0;rotatable=0;deletable=0;editable=0;connectable=0;" parent="1" vertex="1">
                    <mxGeometry x="1435" y="311.48" width="16" height="9.52" as="geometry"/>
                </mxCell>
                <mxCell id="76" value="" style="html=1;verticalLabelPosition=bottom;align=center;labelBackgroundColor=#ffffff;verticalAlign=top;strokeWidth=2;strokeColor=#0080F0;shadow=0;dashed=0;shape=mxgraph.ios7.icons.mail;fontSize=13;fontColor=#FFFFFF;movable=0;resizable=0;rotatable=0;deletable=0;editable=0;connectable=0;" parent="1" vertex="1">
                    <mxGeometry x="1455" y="311.48" width="16" height="9.52" as="geometry"/>
                </mxCell>
                <mxCell id="81" value="Load Balancer" style="text;html=1;strokeColor=none;fillColor=none;align=center;verticalAlign=middle;whiteSpace=wrap;rounded=0;dashed=1;fontSize=7;fontColor=#FFFFFF;movable=0;resizable=0;rotatable=0;deletable=0;editable=0;connectable=0;" parent="1" vertex="1">
                    <mxGeometry x="1528.25" y="183.00000000000003" width="60" height="30" as="geometry"/>
                </mxCell>
                <mxCell id="82" value="DC1" style="text;html=1;strokeColor=none;fillColor=none;align=center;verticalAlign=middle;whiteSpace=wrap;rounded=0;dashed=1;fontSize=10;fontColor=#FFFFFF;movable=0;resizable=0;rotatable=0;deletable=0;editable=0;connectable=0;" parent="1" vertex="1">
                    <mxGeometry x="1330" y="274" width="60" height="30" as="geometry"/>
                </mxCell>
                <mxCell id="86" value="api.mysite.com" style="text;html=1;strokeColor=none;fillColor=none;align=center;verticalAlign=middle;whiteSpace=wrap;rounded=0;dashed=1;fontSize=7;fontColor=#FFFFFF;movable=0;resizable=0;rotatable=0;deletable=0;editable=0;connectable=0;" parent="1" vertex="1">
                    <mxGeometry x="1538" y="158" width="55" height="22" as="geometry"/>
                </mxCell>
                <mxCell id="87" value="www.mysite.com" style="text;html=1;strokeColor=none;fillColor=none;align=center;verticalAlign=middle;whiteSpace=wrap;rounded=0;dashed=1;fontSize=7;fontColor=#FFFFFF;movable=0;resizable=0;rotatable=0;deletable=0;editable=0;connectable=0;" parent="1" vertex="1">
                    <mxGeometry x="1436.5" y="158" width="55" height="22" as="geometry"/>
                </mxCell>
                <mxCell id="93" style="edgeStyle=none;jumpSize=1;html=1;exitX=0.5;exitY=0;exitDx=0;exitDy=0;entryX=0.5;entryY=1;entryDx=0;entryDy=0;strokeWidth=1;fontSize=5;fontColor=#FFFFFF;startArrow=none;startFill=0;endArrow=classic;endFill=1;startSize=0;endSize=0;movable=0;resizable=0;rotatable=0;deletable=0;editable=0;connectable=0;" parent="1" source="88" target="19" edge="1">
                    <mxGeometry relative="1" as="geometry"/>
                </mxCell>
                <mxCell id="88" value="" style="rounded=1;whiteSpace=wrap;html=1;strokeColor=default;fontSize=3;fontColor=#FFFFFF;movable=0;resizable=0;rotatable=0;deletable=0;editable=0;connectable=0;" parent="1" vertex="1">
                    <mxGeometry x="1286" y="498" width="120" height="60" as="geometry"/>
                </mxCell>
                <mxCell id="89" value="&lt;font style=&quot;font-size: 5px;&quot;&gt;Logging&lt;/font&gt;" style="rounded=0;whiteSpace=wrap;html=1;strokeColor=default;fontSize=3;fontColor=#FFFFFF;movable=0;resizable=0;rotatable=0;deletable=0;editable=0;connectable=0;" parent="1" vertex="1">
                    <mxGeometry x="1293.5" y="503" width="51" height="24" as="geometry"/>
                </mxCell>
                <mxCell id="90" value="&lt;font style=&quot;font-size: 5px;&quot;&gt;Metrics&lt;/font&gt;" style="rounded=0;whiteSpace=wrap;html=1;strokeColor=default;fontSize=3;fontColor=#FFFFFF;movable=0;resizable=0;rotatable=0;deletable=0;editable=0;connectable=0;" parent="1" vertex="1">
                    <mxGeometry x="1347" y="503" width="51" height="24" as="geometry"/>
                </mxCell>
                <mxCell id="91" value="Monitoring" style="rounded=0;whiteSpace=wrap;html=1;strokeColor=default;fontSize=5;fontColor=#FFFFFF;movable=0;resizable=0;rotatable=0;deletable=0;editable=0;connectable=0;" parent="1" vertex="1">
                    <mxGeometry x="1293.5" y="529" width="51" height="24" as="geometry"/>
                </mxCell>
                <mxCell id="92" value="Automation" style="rounded=0;whiteSpace=wrap;html=1;strokeColor=default;fontSize=5;fontColor=#FFFFFF;movable=0;resizable=0;rotatable=0;deletable=0;editable=0;connectable=0;" parent="1" vertex="1">
                    <mxGeometry x="1347" y="529" width="51" height="24" as="geometry"/>
                </mxCell>
                <mxCell id="94" value="Tools" style="text;html=1;strokeColor=none;fillColor=none;align=center;verticalAlign=middle;whiteSpace=wrap;rounded=0;fontSize=5;fontColor=#FFFFFF;movable=0;resizable=0;rotatable=0;deletable=0;editable=0;connectable=0;" parent="1" vertex="1">
                    <mxGeometry x="1335" y="473" width="60" height="30" as="geometry"/>
                </mxCell>
                <mxCell id="95" value="&lt;h1 style=&quot;font-size: 12px;&quot;&gt;&lt;font style=&quot;font-size: 12px;&quot;&gt;Solution&lt;/font&gt;&lt;/h1&gt;&lt;p style=&quot;font-size: 12px;&quot;&gt;&lt;i style=&quot;background-color: initial; font-size: 12px;&quot;&gt;Design that supports a single user and gradually&amp;nbsp; scale it up&amp;nbsp;&lt;/i&gt;&lt;i style=&quot;background-color: initial; font-size: 12px;&quot;&gt;our system to serve millions of users:&lt;/i&gt;&lt;/p&gt;&lt;p style=&quot;margin: 0px; font-variant-numeric: normal; font-variant-east-asian: normal; font-variant-alternates: normal; font-kerning: auto; font-optical-sizing: auto; font-feature-settings: normal; font-variation-settings: normal; font-variant-position: normal; font-stretch: normal; line-height: normal; font-size: 12px;&quot; class=&quot;p1&quot;&gt;&lt;i style=&quot;font-size: 12px;&quot;&gt;&lt;font style=&quot;font-size: 12px;&quot;&gt;• Keep web tier stateless&lt;/font&gt;&lt;/i&gt;&lt;/p&gt;&lt;p style=&quot;margin: 0px; font-variant-numeric: normal; font-variant-east-asian: normal; font-variant-alternates: normal; font-kerning: auto; font-optical-sizing: auto; font-feature-settings: normal; font-variation-settings: normal; font-variant-position: normal; font-stretch: normal; line-height: normal; font-size: 12px;&quot; class=&quot;p1&quot;&gt;&lt;i style=&quot;font-size: 12px;&quot;&gt;&lt;font style=&quot;font-size: 12px;&quot;&gt;• Build redundancy at every tier&lt;/font&gt;&lt;/i&gt;&lt;/p&gt;&lt;p style=&quot;margin: 0px; font-variant-numeric: normal; font-variant-east-asian: normal; font-variant-alternates: normal; font-kerning: auto; font-optical-sizing: auto; font-feature-settings: normal; font-variation-settings: normal; font-variant-position: normal; font-stretch: normal; line-height: normal; font-size: 12px;&quot; class=&quot;p1&quot;&gt;&lt;i style=&quot;font-size: 12px;&quot;&gt;&lt;font style=&quot;font-size: 12px;&quot;&gt;• Cache data as much as you can&lt;/font&gt;&lt;/i&gt;&lt;/p&gt;&lt;p style=&quot;margin: 0px; font-variant-numeric: normal; font-variant-east-asian: normal; font-variant-alternates: normal; font-kerning: auto; font-optical-sizing: auto; font-feature-settings: normal; font-variation-settings: normal; font-variant-position: normal; font-stretch: normal; line-height: normal; font-size: 12px;&quot; class=&quot;p1&quot;&gt;&lt;i style=&quot;font-size: 12px;&quot;&gt;&lt;font style=&quot;font-size: 12px;&quot;&gt;• Support multiple data centers&lt;/font&gt;&lt;/i&gt;&lt;/p&gt;&lt;p style=&quot;margin: 0px; font-variant-numeric: normal; font-variant-east-asian: normal; font-variant-alternates: normal; font-kerning: auto; font-optical-sizing: auto; font-feature-settings: normal; font-variation-settings: normal; font-variant-position: normal; font-stretch: normal; line-height: normal; font-size: 12px;&quot; class=&quot;p1&quot;&gt;&lt;i style=&quot;font-size: 12px;&quot;&gt;&lt;font style=&quot;font-size: 12px;&quot;&gt;• Host static assets in CDN&lt;/font&gt;&lt;/i&gt;&lt;/p&gt;&lt;p style=&quot;margin: 0px; font-variant-numeric: normal; font-variant-east-asian: normal; font-variant-alternates: normal; font-kerning: auto; font-optical-sizing: auto; font-feature-settings: normal; font-variation-settings: normal; font-variant-position: normal; font-stretch: normal; line-height: normal; font-size: 12px;&quot; class=&quot;p1&quot;&gt;&lt;i style=&quot;font-size: 12px;&quot;&gt;&lt;font style=&quot;font-size: 12px;&quot;&gt;• Scale your data tier by sharding&lt;/font&gt;&lt;/i&gt;&lt;/p&gt;&lt;p style=&quot;margin: 0px; font-variant-numeric: normal; font-variant-east-asian: normal; font-variant-alternates: normal; font-kerning: auto; font-optical-sizing: auto; font-feature-settings: normal; font-variation-settings: normal; font-variant-position: normal; font-stretch: normal; line-height: normal; font-size: 12px;&quot; class=&quot;p1&quot;&gt;&lt;i style=&quot;font-size: 12px;&quot;&gt;&lt;font style=&quot;font-size: 12px;&quot;&gt;• Split tiers into individual services&lt;/font&gt;&lt;/i&gt;&lt;/p&gt;&lt;p style=&quot;margin: 0px; font-variant-numeric: normal; font-variant-east-asian: normal; font-variant-alternates: normal; font-kerning: auto; font-optical-sizing: auto; font-feature-settings: normal; font-variation-settings: normal; font-variant-position: normal; font-stretch: normal; line-height: normal; font-size: 12px;&quot; class=&quot;p1&quot;&gt;&lt;i style=&quot;font-size: 12px;&quot;&gt;&lt;font style=&quot;font-size: 12px;&quot;&gt;• Monitor your system and use automation tools&lt;/font&gt;&lt;/i&gt;&lt;/p&gt;" style="text;html=1;strokeColor=none;fillColor=none;spacing=5;spacingTop=-20;whiteSpace=wrap;overflow=hidden;rounded=0;fontSize=12;fontColor=#FFFFFF;align=left;movable=0;resizable=0;rotatable=0;deletable=0;editable=0;connectable=0;" parent="1" vertex="1">
                    <mxGeometry x="1123" y="610" width="438" height="187" as="geometry"/>
                </mxCell>
                <mxCell id="96" value="&lt;h1 style=&quot;font-size: 11px;&quot;&gt;&lt;font style=&quot;font-size: 11px;&quot;&gt;Notes&lt;/font&gt;&lt;/h1&gt;&lt;p style=&quot;margin: 0px; font-variant-numeric: normal; font-variant-east-asian: normal; font-variant-alternates: normal; font-kerning: auto; font-optical-sizing: auto; font-feature-settings: normal; font-variation-settings: normal; font-variant-position: normal; font-stretch: normal; font-size: 13px; line-height: normal; font-family: &amp;quot;Helvetica Neue&amp;quot;;&quot; class=&quot;p1&quot;&gt;&lt;i&gt;Database Replication&lt;br&gt;-&amp;nbsp;Master/Slave Relationship.&amp;nbsp;A master database generally only supports write operations. A slave database gets copies of&amp;nbsp;the data from the master database and only supports read operations.&lt;br&gt;&lt;br&gt;&lt;/i&gt;&lt;/p&gt;&lt;p style=&quot;margin: 0px; font-variant-numeric: normal; font-variant-east-asian: normal; font-variant-alternates: normal; font-kerning: auto; font-optical-sizing: auto; font-feature-settings: normal; font-variation-settings: normal; font-variant-position: normal; font-stretch: normal; font-size: 13px; line-height: normal; font-family: &amp;quot;Helvetica Neue&amp;quot;;&quot; class=&quot;p1&quot;&gt;&lt;i&gt;Cache tier&lt;br&gt;- The cache tier is a temporary data store layer, much faster than the database.&lt;br&gt;&lt;/i&gt;&lt;/p&gt;&lt;p style=&quot;margin: 0px; font-variant-numeric: normal; font-variant-east-asian: normal; font-variant-alternates: normal; font-kerning: auto; font-optical-sizing: auto; font-feature-settings: normal; font-variation-settings: normal; font-variant-position: normal; font-stretch: normal; font-size: 13px; line-height: normal; font-family: &amp;quot;Helvetica Neue&amp;quot;;&quot; class=&quot;p1&quot;&gt;Stateless web tier&lt;span style=&quot;background-color: initial;&quot;&gt;A good practice is to store session data in the persistent storage such as relational database or NoSQL. Each web server in the cluster can access state data from databases.&lt;/span&gt;&lt;span style=&quot;background-color: initial;&quot; class=&quot;Apple-converted-space&quot;&gt;&amp;nbsp;&lt;/span&gt;&lt;/p&gt;&lt;p style=&quot;margin: 0px; font-variant-numeric: normal; font-variant-east-asian: normal; font-variant-alternates: normal; font-kerning: auto; font-optical-sizing: auto; font-feature-settings: normal; font-variation-settings: normal; font-variant-position: normal; font-stretch: normal; font-size: 13px; line-height: normal; font-family: &amp;quot;Helvetica Neue&amp;quot;; min-height: 15px;&quot; class=&quot;p2&quot;&gt;&lt;br&gt;&lt;/p&gt;&lt;p style=&quot;margin: 0px; font-variant-numeric: normal; font-variant-east-asian: normal; font-variant-alternates: normal; font-kerning: auto; font-optical-sizing: auto; font-feature-settings: normal; font-variation-settings: normal; font-variant-position: normal; font-stretch: normal; font-size: 13px; line-height: normal; font-family: &amp;quot;Helvetica Neue&amp;quot;;&quot; class=&quot;p1&quot;&gt;&lt;i&gt;CDN&lt;/i&gt;&lt;span class=&quot;Apple-converted-space&quot;&gt;&amp;nbsp;-&amp;nbsp;&lt;/span&gt;&lt;i style=&quot;background-color: initial;&quot;&gt;a network of geographically dispersed servers used to deliver static content. CDN servers cache static content like images, videos, CSS, JavaScript files.&lt;br&gt;&lt;/i&gt;&lt;/p&gt;&lt;p style=&quot;margin: 0px; font-variant-numeric: normal; font-variant-east-asian: normal; font-variant-alternates: normal; font-kerning: auto; font-optical-sizing: auto; font-feature-settings: normal; font-variation-settings: normal; font-variant-position: normal; font-stretch: normal; line-height: normal;&quot; class=&quot;p1&quot;&gt;&lt;font face=&quot;Helvetica Neue&quot;&gt;&lt;span style=&quot;font-size: 13px;&quot;&gt;&lt;i&gt;&lt;br&gt;Message queue&lt;/i&gt;&lt;/span&gt;&lt;/font&gt;&lt;/p&gt;&lt;p style=&quot;margin: 0px; font-variant-numeric: normal; font-variant-east-asian: normal; font-variant-alternates: normal; font-kerning: auto; font-optical-sizing: auto; font-feature-settings: normal; font-variation-settings: normal; font-variant-position: normal; font-stretch: normal; line-height: normal;&quot; class=&quot;p1&quot;&gt;&lt;font face=&quot;Helvetica Neue&quot;&gt;&lt;span style=&quot;font-size: 13px;&quot;&gt;&lt;i&gt;- a durable component, stored in memory, that supports asynchronous&amp;nbsp;&lt;/i&gt;&lt;/span&gt;&lt;/font&gt;&lt;i style=&quot;font-size: 13px; font-family: &amp;quot;Helvetica Neue&amp;quot;; background-color: initial;&quot;&gt;communication. It serves as a buffer and distributes asynchronous requests.&lt;/i&gt;&lt;/p&gt;&lt;p style=&quot;margin: 0px; font-variant-numeric: normal; font-variant-east-asian: normal; font-variant-alternates: normal; font-kerning: auto; font-optical-sizing: auto; font-feature-settings: normal; font-variation-settings: normal; font-variant-position: normal; font-stretch: normal; font-size: 13px; line-height: normal; font-family: &amp;quot;Helvetica Neue&amp;quot;;&quot; class=&quot;p1&quot;&gt;&lt;i style=&quot;background-color: initial;&quot;&gt;&lt;br&gt;&lt;/i&gt;&lt;/p&gt;&lt;p style=&quot;margin: 0px; font-variant-numeric: normal; font-variant-east-asian: normal; font-variant-alternates: normal; font-kerning: auto; font-optical-sizing: auto; font-feature-settings: normal; font-variation-settings: normal; font-variant-position: normal; font-stretch: normal; font-size: 13px; line-height: normal; font-family: &amp;quot;Helvetica Neue&amp;quot;;&quot; class=&quot;p1&quot;&gt;&lt;i style=&quot;background-color: initial;&quot;&gt;Note: The session data out of the web tier and store them in the persistent data store. The shared data store could be a relational database, Memcached/Redis, NoSQL, etc.&lt;span class=&quot;Apple-converted-space&quot;&gt;&amp;nbsp;&lt;/span&gt;&lt;/i&gt;&lt;/p&gt;&lt;p style=&quot;margin: 0px; font-variant-numeric: normal; font-variant-east-asian: normal; font-variant-alternates: normal; font-kerning: auto; font-optical-sizing: auto; font-feature-settings: normal; font-variation-settings: normal; font-variant-position: normal; font-stretch: normal; font-size: 13px; line-height: normal; font-family: &amp;quot;Helvetica Neue&amp;quot;;&quot; class=&quot;p1&quot;&gt;&lt;i style=&quot;&quot;&gt;The NoSQL data store is chosen as it is easy to scale. Autoscaling means adding orremoving web servers automatically based on the traffic load.&lt;/i&gt;&lt;/p&gt;" style="text;html=1;strokeColor=none;fillColor=none;spacing=5;spacingTop=-20;whiteSpace=wrap;overflow=hidden;rounded=0;fontSize=11;fontColor=#FFFFFF;align=left;movable=0;resizable=0;rotatable=0;deletable=0;editable=0;connectable=0;" parent="1" vertex="1">
                    <mxGeometry x="1604.75" y="486" width="586.25" height="360" as="geometry"/>
                </mxCell>
                <mxCell id="97" value="" style="rounded=1;whiteSpace=wrap;html=1;fontSize=13;fontColor=#FFFFFF;dashed=1;movable=0;resizable=0;rotatable=0;deletable=0;editable=0;connectable=0;" parent="1" vertex="1">
                    <mxGeometry x="1521" y="272" width="299" height="202" as="geometry"/>
                </mxCell>
                <mxCell id="98" style="edgeStyle=none;jumpSize=1;html=1;exitX=1;exitY=0.5;exitDx=0;exitDy=0;strokeWidth=1;fontSize=10;fontColor=#FFFFFF;startArrow=none;startFill=0;endArrow=classic;endFill=1;startSize=0;endSize=0;movable=0;resizable=0;rotatable=0;deletable=0;editable=0;connectable=0;" parent="1" source="99" target="101" edge="1">
                    <mxGeometry relative="1" as="geometry"/>
                </mxCell>
                <mxCell id="99" value="" style="rounded=1;whiteSpace=wrap;html=1;dashed=1;fontSize=13;fontColor=#FFFFFF;movable=0;resizable=0;rotatable=0;deletable=0;editable=0;connectable=0;" parent="1" vertex="1">
                    <mxGeometry x="1539" y="286" width="115" height="65" as="geometry"/>
                </mxCell>
                <mxCell id="100" value="" style="outlineConnect=0;dashed=0;verticalLabelPosition=bottom;verticalAlign=top;align=center;html=1;shape=mxgraph.aws3.cache_node;fillColor=#2E73B8;gradientColor=none;fontSize=13;fontColor=#FFFFFF;movable=0;resizable=0;rotatable=0;deletable=0;editable=0;connectable=0;" parent="1" vertex="1">
                    <mxGeometry x="1673.5" y="383" width="30" height="25.5" as="geometry"/>
                </mxCell>
                <mxCell id="101" value="" style="strokeWidth=2;html=1;shape=mxgraph.flowchart.direct_data;whiteSpace=wrap;dashed=1;fontSize=13;fontColor=#FFFFFF;rotation=0;flipH=1;movable=0;resizable=0;rotatable=0;deletable=0;editable=0;connectable=0;" parent="1" vertex="1">
                    <mxGeometry x="1717.5" y="297.42" width="87.5" height="39.62" as="geometry"/>
                </mxCell>
                <mxCell id="102" value="" style="html=1;verticalLabelPosition=bottom;align=center;labelBackgroundColor=#ffffff;verticalAlign=top;strokeWidth=2;strokeColor=#0080F0;shadow=0;dashed=0;shape=mxgraph.ios7.icons.mail;fontSize=13;fontColor=#FFFFFF;movable=0;resizable=0;rotatable=0;deletable=0;editable=0;connectable=0;" parent="1" vertex="1">
                    <mxGeometry x="1739" y="311.48" width="16" height="9.52" as="geometry"/>
                </mxCell>
                <mxCell id="103" value="" style="sketch=0;pointerEvents=1;shadow=0;dashed=0;html=1;strokeColor=none;labelPosition=center;verticalLabelPosition=bottom;verticalAlign=top;outlineConnect=0;align=center;shape=mxgraph.office.servers.physical_host_farm;fillColor=#2072B8;fontSize=13;fontColor=#FFFFFF;movable=0;resizable=0;rotatable=0;deletable=0;editable=0;connectable=0;" parent="1" vertex="1">
                    <mxGeometry x="1568.5" y="289" width="56" height="41.96" as="geometry"/>
                </mxCell>
                <mxCell id="104" style="edgeStyle=none;jumpSize=1;html=1;exitX=0.5;exitY=1;exitDx=0;exitDy=0;entryX=0.5;entryY=0;entryDx=0;entryDy=0;strokeWidth=1;fontSize=3;fontColor=#FFFFFF;startArrow=none;startFill=0;endArrow=classic;endFill=1;startSize=0;endSize=0;movable=0;resizable=0;rotatable=0;deletable=0;editable=0;connectable=0;" parent="1" source="106" target="107" edge="1">
                    <mxGeometry relative="1" as="geometry"/>
                </mxCell>
                <mxCell id="105" style="edgeStyle=none;jumpSize=1;html=1;exitX=0.5;exitY=1;exitDx=0;exitDy=0;entryX=0.5;entryY=0;entryDx=0;entryDy=0;strokeWidth=1;fontSize=3;fontColor=#FFFFFF;startArrow=none;startFill=0;endArrow=classic;endFill=1;startSize=0;endSize=0;movable=0;resizable=0;rotatable=0;deletable=0;editable=0;connectable=0;" parent="1" source="106" target="112" edge="1">
                    <mxGeometry relative="1" as="geometry"/>
                </mxCell>
                <mxCell id="129" style="edgeStyle=none;jumpSize=1;html=1;exitX=0.5;exitY=1;exitDx=0;exitDy=0;entryX=0.951;entryY=0.51;entryDx=0;entryDy=0;entryPerimeter=0;strokeWidth=1;fontFamily=Helvetica;fontSize=11;fontColor=#FFFFFF;startArrow=none;startFill=0;endArrow=classic;endFill=1;startSize=0;endSize=0;movable=0;resizable=0;rotatable=0;deletable=0;editable=0;connectable=0;" parent="1" source="106" target="63" edge="1">
                    <mxGeometry relative="1" as="geometry"/>
                </mxCell>
                <mxCell id="106" value="Web Servers" style="text;html=1;strokeColor=none;fillColor=none;align=center;verticalAlign=middle;whiteSpace=wrap;rounded=0;dashed=1;fontSize=7;fontColor=#FFFFFF;movable=0;resizable=0;rotatable=0;deletable=0;editable=0;connectable=0;" parent="1" vertex="1">
                    <mxGeometry x="1566.5" y="322.98" width="60" height="30" as="geometry"/>
                </mxCell>
                <mxCell id="107" value="" style="rounded=1;whiteSpace=wrap;html=1;fontSize=13;fontColor=#FFFFFF;movable=0;resizable=0;rotatable=0;deletable=0;editable=0;connectable=0;strokeColor=default;" parent="1" vertex="1">
                    <mxGeometry x="1538" y="377" width="117" height="65" as="geometry"/>
                </mxCell>
                <mxCell id="108" style="edgeStyle=none;html=1;exitX=1;exitY=0.5;exitDx=0;exitDy=0;exitPerimeter=0;entryX=0;entryY=0.5;entryDx=0;entryDy=0;entryPerimeter=0;fontSize=5;fontColor=#FFFFFF;strokeWidth=1;endArrow=classic;endFill=1;startArrow=classic;startFill=1;jumpSize=1;startSize=0;endSize=0;movable=0;resizable=0;rotatable=0;deletable=0;editable=0;connectable=0;" parent="1" source="111" target="114" edge="1">
                    <mxGeometry relative="1" as="geometry"/>
                </mxCell>
                <mxCell id="109" style="edgeStyle=none;html=1;fontSize=5;fontColor=#FFFFFF;strokeWidth=1;endArrow=classic;endFill=1;startArrow=classic;startFill=1;jumpSize=1;startSize=0;endSize=0;entryX=0;entryY=0.5;entryDx=0;entryDy=0;entryPerimeter=0;exitX=1;exitY=0.5;exitDx=0;exitDy=0;exitPerimeter=0;movable=0;resizable=0;rotatable=0;deletable=0;editable=0;connectable=0;" parent="1" source="114" target="116" edge="1">
                    <mxGeometry relative="1" as="geometry">
                        <mxPoint x="1601" y="407" as="sourcePoint"/>
                        <mxPoint x="1618" y="407" as="targetPoint"/>
                    </mxGeometry>
                </mxCell>
                <mxCell id="110" value="Replicate" style="text;html=1;strokeColor=none;fillColor=none;align=center;verticalAlign=middle;whiteSpace=wrap;rounded=0;dashed=1;fontSize=3;fontColor=#FFFFFF;movable=0;resizable=0;rotatable=0;deletable=0;editable=0;connectable=0;" parent="1" vertex="1">
                    <mxGeometry x="1602.5" y="395" width="24" height="11" as="geometry"/>
                </mxCell>
                <mxCell id="111" value="" style="verticalLabelPosition=bottom;html=1;verticalAlign=top;align=center;strokeColor=none;fillColor=#00BEF2;shape=mxgraph.azure.database;dashed=1;fontSize=10;fontColor=#FFFFFF;movable=0;resizable=0;rotatable=0;deletable=0;editable=0;connectable=0;" parent="1" vertex="1">
                    <mxGeometry x="1547.5" y="397" width="16.5" height="18" as="geometry"/>
                </mxCell>
                <mxCell id="112" value="" style="rounded=1;whiteSpace=wrap;html=1;fontSize=13;fontColor=#FFFFFF;movable=0;resizable=0;rotatable=0;deletable=0;editable=0;connectable=0;strokeColor=default;" parent="1" vertex="1">
                    <mxGeometry x="1660" y="377" width="67" height="63" as="geometry"/>
                </mxCell>
                <mxCell id="113" value="Slave DB" style="text;html=1;strokeColor=none;fillColor=none;align=center;verticalAlign=middle;whiteSpace=wrap;rounded=0;dashed=1;fontSize=5;fontColor=#FFFFFF;movable=0;resizable=0;rotatable=0;deletable=0;editable=0;connectable=0;" parent="1" vertex="1">
                    <mxGeometry x="1538" y="413" width="37" height="14" as="geometry"/>
                </mxCell>
                <mxCell id="114" value="" style="verticalLabelPosition=bottom;html=1;verticalAlign=top;align=center;strokeColor=none;fillColor=#00BEF2;shape=mxgraph.azure.database;dashed=1;fontSize=10;fontColor=#FFFFFF;movable=0;resizable=0;rotatable=0;deletable=0;editable=0;connectable=0;" parent="1" vertex="1">
                    <mxGeometry x="1588.25" y="397" width="16.5" height="18" as="geometry"/>
                </mxCell>
                <mxCell id="115" value="Master DB" style="text;html=1;strokeColor=none;fillColor=none;align=center;verticalAlign=middle;whiteSpace=wrap;rounded=0;dashed=1;fontSize=5;fontColor=#FFFFFF;movable=0;resizable=0;rotatable=0;deletable=0;editable=0;connectable=0;" parent="1" vertex="1">
                    <mxGeometry x="1578" y="413" width="37" height="14" as="geometry"/>
                </mxCell>
                <mxCell id="116" value="" style="verticalLabelPosition=bottom;html=1;verticalAlign=top;align=center;strokeColor=none;fillColor=#00BEF2;shape=mxgraph.azure.database;dashed=1;fontSize=10;fontColor=#FFFFFF;movable=0;resizable=0;rotatable=0;deletable=0;editable=0;connectable=0;" parent="1" vertex="1">
                    <mxGeometry x="1626.5" y="397" width="16.5" height="18" as="geometry"/>
                </mxCell>
                <mxCell id="117" value="" style="rounded=1;whiteSpace=wrap;html=1;fontSize=13;fontColor=#FFFFFF;movable=0;resizable=0;rotatable=0;deletable=0;editable=0;connectable=0;strokeColor=default;dashed=1;" parent="1" vertex="1">
                    <mxGeometry x="1734" y="377" width="67" height="63" as="geometry"/>
                </mxCell>
                <mxCell id="118" value="Slave DB" style="text;html=1;strokeColor=none;fillColor=none;align=center;verticalAlign=middle;whiteSpace=wrap;rounded=0;dashed=1;fontSize=5;fontColor=#FFFFFF;movable=0;resizable=0;rotatable=0;deletable=0;editable=0;connectable=0;" parent="1" vertex="1">
                    <mxGeometry x="1617" y="413" width="37" height="14" as="geometry"/>
                </mxCell>
                <mxCell id="119" value="Replicate" style="text;html=1;strokeColor=none;fillColor=none;align=center;verticalAlign=middle;whiteSpace=wrap;rounded=0;dashed=1;fontSize=3;fontColor=#FFFFFF;movable=0;resizable=0;rotatable=0;deletable=0;editable=0;connectable=0;" parent="1" vertex="1">
                    <mxGeometry x="1564.25" y="395" width="24" height="11" as="geometry"/>
                </mxCell>
                <mxCell id="120" value="" style="outlineConnect=0;dashed=0;verticalLabelPosition=bottom;verticalAlign=top;align=center;html=1;shape=mxgraph.aws3.cache_node;fillColor=#2E73B8;gradientColor=none;fontSize=13;fontColor=#FFFFFF;movable=0;resizable=0;rotatable=0;deletable=0;editable=0;connectable=0;" parent="1" vertex="1">
                    <mxGeometry x="1666.5" y="385.09000000000003" width="21" height="19.75" as="geometry"/>
                </mxCell>
                <mxCell id="121" value="" style="outlineConnect=0;dashed=0;verticalLabelPosition=bottom;verticalAlign=top;align=center;html=1;shape=mxgraph.aws3.cache_node;fillColor=#2E73B8;gradientColor=none;fontSize=13;fontColor=#FFFFFF;movable=0;resizable=0;rotatable=0;deletable=0;editable=0;connectable=0;" parent="1" vertex="1">
                    <mxGeometry x="1682.5" y="396.15000000000003" width="21" height="19.75" as="geometry"/>
                </mxCell>
                <mxCell id="122" value="" style="outlineConnect=0;dashed=0;verticalLabelPosition=bottom;verticalAlign=top;align=center;html=1;shape=mxgraph.aws3.cache_node;fillColor=#2E73B8;gradientColor=none;fontSize=13;fontColor=#FFFFFF;movable=0;resizable=0;rotatable=0;deletable=0;editable=0;connectable=0;" parent="1" vertex="1">
                    <mxGeometry x="1699" y="410.12000000000006" width="21" height="19.75" as="geometry"/>
                </mxCell>
                <mxCell id="123" value="" style="sketch=0;pointerEvents=1;shadow=0;dashed=0;html=1;strokeColor=none;labelPosition=center;verticalLabelPosition=bottom;verticalAlign=top;outlineConnect=0;align=center;shape=mxgraph.office.servers.physical_host_farm;fillColor=#2072B8;fontSize=13;fontColor=#FFFFFF;movable=0;resizable=0;rotatable=0;deletable=0;editable=0;connectable=0;" parent="1" vertex="1">
                    <mxGeometry x="1740" y="380.87" width="56" height="49" as="geometry"/>
                </mxCell>
                <mxCell id="124" style="edgeStyle=none;jumpSize=1;html=1;exitX=0.5;exitY=1;exitDx=0;exitDy=0;entryX=0.5;entryY=0;entryDx=0;entryDy=0;strokeWidth=1;fontSize=10;fontColor=#FFFFFF;startArrow=none;startFill=0;endArrow=classic;endFill=1;startSize=0;endSize=0;movable=0;resizable=0;rotatable=0;deletable=0;editable=0;connectable=0;" parent="1" source="125" target="117" edge="1">
                    <mxGeometry relative="1" as="geometry"/>
                </mxCell>
                <mxCell id="125" value="Message Queue" style="text;html=1;strokeColor=none;fillColor=none;align=center;verticalAlign=middle;whiteSpace=wrap;rounded=0;dashed=1;fontSize=5;fontColor=#FFFFFF;movable=0;resizable=0;rotatable=0;deletable=0;editable=0;connectable=0;" parent="1" vertex="1">
                    <mxGeometry x="1742" y="322.98" width="41.75" height="13.98" as="geometry"/>
                </mxCell>
                <mxCell id="126" value="Workers" style="text;html=1;strokeColor=none;fillColor=none;align=center;verticalAlign=middle;whiteSpace=wrap;rounded=0;dashed=1;fontSize=5;fontColor=#FFFFFF;movable=0;resizable=0;rotatable=0;deletable=0;editable=0;connectable=0;" parent="1" vertex="1">
                    <mxGeometry x="1737.5" y="424" width="60" height="21" as="geometry"/>
                </mxCell>
                <mxCell id="127" value="" style="html=1;verticalLabelPosition=bottom;align=center;labelBackgroundColor=#ffffff;verticalAlign=top;strokeWidth=2;strokeColor=#0080F0;shadow=0;dashed=0;shape=mxgraph.ios7.icons.mail;fontSize=13;fontColor=#FFFFFF;movable=0;resizable=0;rotatable=0;deletable=0;editable=0;connectable=0;" parent="1" vertex="1">
                    <mxGeometry x="1760" y="311.48" width="16" height="9.52" as="geometry"/>
                </mxCell>
                <mxCell id="128" value="" style="html=1;verticalLabelPosition=bottom;align=center;labelBackgroundColor=#ffffff;verticalAlign=top;strokeWidth=2;strokeColor=#0080F0;shadow=0;dashed=0;shape=mxgraph.ios7.icons.mail;fontSize=13;fontColor=#FFFFFF;movable=0;resizable=0;rotatable=0;deletable=0;editable=0;connectable=0;" parent="1" vertex="1">
                    <mxGeometry x="1780" y="311.48" width="16" height="9.52" as="geometry"/>
                </mxCell>
                <mxCell id="130" value="DC2" style="text;html=1;strokeColor=none;fillColor=none;align=center;verticalAlign=middle;whiteSpace=wrap;rounded=0;dashed=1;fontSize=10;fontColor=#FFFFFF;movable=0;resizable=0;rotatable=0;deletable=0;editable=0;connectable=0;" parent="1" vertex="1">
                    <mxGeometry x="1650" y="272" width="60" height="30" as="geometry"/>
                </mxCell>
            </root>
        </mxGraphModel>
    </diagram>
    <diagram name="NEWS FEED SYSTEM" id="y1eqPotabHcdpaPmYo4W">
        <mxGraphModel dx="765" dy="536" grid="0" gridSize="10" guides="1" tooltips="1" connect="1" arrows="1" fold="1" page="1" pageScale="1" pageWidth="1100" pageHeight="850" background="none" math="0" shadow="0">
            <root>
                <mxCell id="FD6kAqHnBY0sS9sEwOvw-0"/>
                <mxCell id="FD6kAqHnBY0sS9sEwOvw-1" parent="FD6kAqHnBY0sS9sEwOvw-0"/>
                <mxCell id="CFPQhiUIddPQ8o0EjyZj-8" value="" style="rounded=1;whiteSpace=wrap;html=1;strokeColor=default;fontSize=7;movable=0;resizable=0;rotatable=0;deletable=0;editable=0;connectable=0;dashed=1;" vertex="1" parent="FD6kAqHnBY0sS9sEwOvw-1">
                    <mxGeometry x="676.5" y="482" width="89.5" height="76" as="geometry"/>
                </mxCell>
                <mxCell id="IHDC7Kv4NmnlSQtLo-zi-18" value="" style="rounded=1;whiteSpace=wrap;html=1;strokeColor=default;fontSize=4;movable=0;resizable=0;rotatable=0;deletable=0;editable=0;connectable=0;" vertex="1" parent="FD6kAqHnBY0sS9sEwOvw-1">
                    <mxGeometry x="827" y="318.51" width="64" height="43" as="geometry"/>
                </mxCell>
                <mxCell id="y_XTdkOUkhyEK6-i8VD3-0" value="NEWS FEED SYSTEM&lt;br&gt;" style="text;html=1;align=center;verticalAlign=middle;resizable=0;points=[];autosize=1;strokeColor=none;fillColor=none;movable=0;rotatable=0;deletable=0;editable=0;connectable=0;" vertex="1" parent="FD6kAqHnBY0sS9sEwOvw-1">
                    <mxGeometry x="24" y="17" width="142" height="26" as="geometry"/>
                </mxCell>
                <mxCell id="y_XTdkOUkhyEK6-i8VD3-2" value="&lt;h1 style=&quot;font-size: 13px;&quot;&gt;&lt;font style=&quot;font-size: 13px;&quot;&gt;Requirements:&lt;/font&gt;&lt;/h1&gt;&lt;p style=&quot;font-size: 13px;&quot;&gt;&lt;font style=&quot;font-size: 13px;&quot;&gt;- News feed sorted in reverse chronological order&lt;br&gt;- 1 user can have 5000 friends&lt;br&gt;- Traffic volume: 10m active daily users (DAU)&lt;br&gt;- Feed can have images and videos&lt;/font&gt;&lt;/p&gt;&lt;p style=&quot;font-size: 13px;&quot;&gt;Proposed Solution (High-level):&lt;br&gt;- Feed publishing: When a user publishes post, the data is written to database/cache and post will be populated into friend's news feed.&lt;br&gt;- News feed building: The news feed built by aggregating friend's posts in a reverse chronological order.&lt;/p&gt;" style="text;html=1;strokeColor=none;fillColor=none;spacing=5;spacingTop=-20;whiteSpace=wrap;overflow=hidden;rounded=0;movable=0;resizable=0;rotatable=0;deletable=0;editable=0;connectable=0;" vertex="1" parent="FD6kAqHnBY0sS9sEwOvw-1">
                    <mxGeometry x="28" y="59" width="373" height="220" as="geometry"/>
                </mxCell>
                <mxCell id="CLXyUNa6UO3o4pGvJHjB-1" style="edgeStyle=none;html=1;exitX=0.5;exitY=1;exitDx=0;exitDy=0;entryX=0.5;entryY=0;entryDx=0;entryDy=0;entryPerimeter=0;fontSize=13;movable=0;resizable=0;rotatable=0;deletable=0;editable=0;connectable=0;" edge="1" parent="FD6kAqHnBY0sS9sEwOvw-1" source="BLcHh_JMPUVF411TAcFm-0" target="CLXyUNa6UO3o4pGvJHjB-0">
                    <mxGeometry relative="1" as="geometry"/>
                </mxCell>
                <mxCell id="BLcHh_JMPUVF411TAcFm-0" value="User" style="rounded=1;whiteSpace=wrap;html=1;fontSize=13;fontColor=#FFFFFF;movable=0;resizable=0;rotatable=0;deletable=0;editable=0;connectable=0;" vertex="1" parent="FD6kAqHnBY0sS9sEwOvw-1">
                    <mxGeometry x="661" y="94" width="107" height="60" as="geometry"/>
                </mxCell>
                <mxCell id="BLcHh_JMPUVF411TAcFm-1" style="edgeStyle=none;html=1;fontSize=13;fontColor=#FFFFFF;movable=0;resizable=0;rotatable=0;deletable=0;editable=0;connectable=0;" edge="1" parent="FD6kAqHnBY0sS9sEwOvw-1" source="BLcHh_JMPUVF411TAcFm-2" target="BLcHh_JMPUVF411TAcFm-4">
                    <mxGeometry relative="1" as="geometry">
                        <mxPoint x="619" y="124" as="targetPoint"/>
                    </mxGeometry>
                </mxCell>
                <mxCell id="BLcHh_JMPUVF411TAcFm-2" value="" style="sketch=0;pointerEvents=1;shadow=0;dashed=0;html=1;strokeColor=#82b366;fillColor=#d5e8d4;labelPosition=center;verticalLabelPosition=bottom;verticalAlign=top;align=center;outlineConnect=0;shape=mxgraph.veeam2.laptop;fontSize=13;movable=0;resizable=0;rotatable=0;deletable=0;editable=0;connectable=0;" vertex="1" parent="FD6kAqHnBY0sS9sEwOvw-1">
                    <mxGeometry x="663" y="112" width="35" height="24" as="geometry"/>
                </mxCell>
                <mxCell id="BLcHh_JMPUVF411TAcFm-3" value="" style="html=1;verticalLabelPosition=bottom;align=center;labelBackgroundColor=#ffffff;verticalAlign=top;strokeWidth=2;strokeColor=#82b366;shadow=0;dashed=0;shape=mxgraph.ios7.icons.smartphone;fontSize=13;movable=0;resizable=0;rotatable=0;deletable=0;editable=0;connectable=0;fillColor=#d5e8d4;" vertex="1" parent="FD6kAqHnBY0sS9sEwOvw-1">
                    <mxGeometry x="741" y="109" width="18" height="30" as="geometry"/>
                </mxCell>
                <mxCell id="BLcHh_JMPUVF411TAcFm-4" value="" style="sketch=0;aspect=fixed;html=1;points=[];align=center;image;fontSize=12;image=img/lib/mscae/DNS.svg;dashed=1;fontColor=#FFFFFF;movable=0;resizable=0;rotatable=0;deletable=0;editable=0;connectable=0;" vertex="1" parent="FD6kAqHnBY0sS9sEwOvw-1">
                    <mxGeometry x="577" y="102.5" width="43" height="43" as="geometry"/>
                </mxCell>
                <mxCell id="BLcHh_JMPUVF411TAcFm-5" value="&lt;span style=&quot;text-align: left;&quot;&gt;Feed Publishing:&lt;/span&gt;" style="text;html=1;align=center;verticalAlign=middle;resizable=0;points=[];autosize=1;strokeColor=none;fillColor=none;fontSize=13;movable=0;rotatable=0;deletable=0;editable=0;connectable=0;" vertex="1" parent="FD6kAqHnBY0sS9sEwOvw-1">
                    <mxGeometry x="534" y="51" width="115" height="28" as="geometry"/>
                </mxCell>
                <mxCell id="CLXyUNa6UO3o4pGvJHjB-5" style="edgeStyle=none;html=1;exitX=0.5;exitY=1;exitDx=0;exitDy=0;exitPerimeter=0;entryX=0.477;entryY=0.011;entryDx=0;entryDy=0;entryPerimeter=0;fontSize=13;movable=0;resizable=0;rotatable=0;deletable=0;editable=0;connectable=0;" edge="1" parent="FD6kAqHnBY0sS9sEwOvw-1" source="CLXyUNa6UO3o4pGvJHjB-0" target="CLXyUNa6UO3o4pGvJHjB-2">
                    <mxGeometry relative="1" as="geometry"/>
                </mxCell>
                <mxCell id="CLXyUNa6UO3o4pGvJHjB-0" value="" style="verticalLabelPosition=bottom;html=1;verticalAlign=top;align=center;strokeColor=none;fillColor=#00BEF2;shape=mxgraph.azure.azure_load_balancer;fontSize=13;fontColor=#FFFFFF;movable=0;resizable=0;rotatable=0;deletable=0;editable=0;connectable=0;" vertex="1" parent="FD6kAqHnBY0sS9sEwOvw-1">
                    <mxGeometry x="694.25" y="188" width="40.5" height="26" as="geometry"/>
                </mxCell>
                <mxCell id="CLXyUNa6UO3o4pGvJHjB-40" style="edgeStyle=none;html=1;exitX=1;exitY=0.5;exitDx=0;exitDy=0;entryX=0;entryY=0.5;entryDx=0;entryDy=0;fontSize=7;movable=0;resizable=0;rotatable=0;deletable=0;editable=0;connectable=0;" edge="1" parent="FD6kAqHnBY0sS9sEwOvw-1" source="CLXyUNa6UO3o4pGvJHjB-2" target="CLXyUNa6UO3o4pGvJHjB-39">
                    <mxGeometry relative="1" as="geometry"/>
                </mxCell>
                <mxCell id="CLXyUNa6UO3o4pGvJHjB-43" style="edgeStyle=none;html=1;exitX=0;exitY=0.5;exitDx=0;exitDy=0;entryX=1;entryY=0.5;entryDx=0;entryDy=0;fontSize=7;movable=0;resizable=0;rotatable=0;deletable=0;editable=0;connectable=0;" edge="1" parent="FD6kAqHnBY0sS9sEwOvw-1" source="CLXyUNa6UO3o4pGvJHjB-2" target="CLXyUNa6UO3o4pGvJHjB-42">
                    <mxGeometry relative="1" as="geometry"/>
                </mxCell>
                <mxCell id="IHDC7Kv4NmnlSQtLo-zi-10" style="edgeStyle=none;html=1;exitX=0.5;exitY=1;exitDx=0;exitDy=0;entryX=0.5;entryY=0;entryDx=0;entryDy=0;fontSize=7;movable=0;resizable=0;rotatable=0;deletable=0;editable=0;connectable=0;" edge="1" parent="FD6kAqHnBY0sS9sEwOvw-1" source="CLXyUNa6UO3o4pGvJHjB-2" target="IHDC7Kv4NmnlSQtLo-zi-9">
                    <mxGeometry relative="1" as="geometry"/>
                </mxCell>
                <mxCell id="CLXyUNa6UO3o4pGvJHjB-2" value="" style="rounded=1;whiteSpace=wrap;html=1;fontSize=13;dashed=1;movable=0;resizable=0;rotatable=0;deletable=0;editable=0;connectable=0;" vertex="1" parent="FD6kAqHnBY0sS9sEwOvw-1">
                    <mxGeometry x="657" y="235" width="120" height="60" as="geometry"/>
                </mxCell>
                <mxCell id="CLXyUNa6UO3o4pGvJHjB-4" value="" style="sketch=0;pointerEvents=1;shadow=0;dashed=0;html=1;strokeColor=none;fillColor=#505050;labelPosition=center;verticalLabelPosition=bottom;verticalAlign=top;outlineConnect=0;align=center;shape=mxgraph.office.servers.server_farm;fillColor=#7FBA42;fontSize=13;movable=0;resizable=0;rotatable=0;deletable=0;editable=0;connectable=0;" vertex="1" parent="FD6kAqHnBY0sS9sEwOvw-1">
                    <mxGeometry x="665" y="246.25" width="40" height="36" as="geometry"/>
                </mxCell>
                <mxCell id="CLXyUNa6UO3o4pGvJHjB-34" value="" style="shape=table;startSize=0;container=1;collapsible=0;childLayout=tableLayout;strokeColor=default;fontSize=13;align=center;horizontal=0;movable=0;resizable=0;rotatable=0;deletable=0;editable=0;connectable=0;" vertex="1" parent="FD6kAqHnBY0sS9sEwOvw-1">
                    <mxGeometry x="721" y="245.5" width="49" height="37.5" as="geometry"/>
                </mxCell>
                <mxCell id="CLXyUNa6UO3o4pGvJHjB-35" value="" style="shape=tableRow;horizontal=0;startSize=0;swimlaneHead=0;swimlaneBody=0;top=0;left=0;bottom=0;right=0;collapsible=0;dropTarget=0;fillColor=none;points=[[0,0.5],[1,0.5]];portConstraint=eastwest;dashed=1;strokeColor=default;fontSize=13;movable=0;resizable=0;rotatable=0;deletable=0;editable=0;connectable=0;" vertex="1" parent="CLXyUNa6UO3o4pGvJHjB-34">
                    <mxGeometry width="49" height="21" as="geometry"/>
                </mxCell>
                <mxCell id="CLXyUNa6UO3o4pGvJHjB-36" value="&lt;font style=&quot;font-size: 7px;&quot;&gt;Authentication&lt;/font&gt;" style="shape=partialRectangle;html=1;whiteSpace=wrap;connectable=0;overflow=hidden;fillColor=none;top=0;left=0;bottom=0;right=0;pointerEvents=1;dashed=1;strokeColor=default;fontSize=13;movable=0;resizable=0;rotatable=0;deletable=0;editable=0;" vertex="1" parent="CLXyUNa6UO3o4pGvJHjB-35">
                    <mxGeometry width="49" height="21" as="geometry">
                        <mxRectangle width="49" height="21" as="alternateBounds"/>
                    </mxGeometry>
                </mxCell>
                <mxCell id="CLXyUNa6UO3o4pGvJHjB-37" value="" style="shape=tableRow;horizontal=0;startSize=0;swimlaneHead=0;swimlaneBody=0;top=0;left=0;bottom=0;right=0;collapsible=0;dropTarget=0;fillColor=none;points=[[0,0.5],[1,0.5]];portConstraint=eastwest;dashed=1;strokeColor=default;fontSize=13;movable=0;resizable=0;rotatable=0;deletable=0;editable=0;connectable=0;" vertex="1" parent="CLXyUNa6UO3o4pGvJHjB-34">
                    <mxGeometry y="21" width="49" height="17" as="geometry"/>
                </mxCell>
                <mxCell id="CLXyUNa6UO3o4pGvJHjB-38" value="&lt;span style=&quot;font-size: 7px;&quot;&gt;Rate limiting&lt;/span&gt;" style="shape=partialRectangle;html=1;whiteSpace=wrap;connectable=0;overflow=hidden;fillColor=none;top=0;left=0;bottom=0;right=0;pointerEvents=1;dashed=1;strokeColor=default;fontSize=13;horizontal=1;align=center;movable=0;resizable=0;rotatable=0;deletable=0;editable=0;" vertex="1" parent="CLXyUNa6UO3o4pGvJHjB-37">
                    <mxGeometry width="49" height="17" as="geometry">
                        <mxRectangle width="49" height="17" as="alternateBounds"/>
                    </mxGeometry>
                </mxCell>
                <mxCell id="CLXyUNa6UO3o4pGvJHjB-39" value="Notification Service" style="rounded=0;whiteSpace=wrap;html=1;strokeColor=default;fontSize=7;movable=0;resizable=0;rotatable=0;deletable=0;editable=0;connectable=0;" vertex="1" parent="FD6kAqHnBY0sS9sEwOvw-1">
                    <mxGeometry x="802" y="246.5" width="92" height="37" as="geometry"/>
                </mxCell>
                <mxCell id="CLXyUNa6UO3o4pGvJHjB-55" style="edgeStyle=none;html=1;exitX=0.5;exitY=1;exitDx=0;exitDy=0;entryX=0.5;entryY=0;entryDx=0;entryDy=0;fontSize=7;movable=0;resizable=0;rotatable=0;deletable=0;editable=0;connectable=0;" edge="1" parent="FD6kAqHnBY0sS9sEwOvw-1" source="CLXyUNa6UO3o4pGvJHjB-42" target="CLXyUNa6UO3o4pGvJHjB-44">
                    <mxGeometry relative="1" as="geometry"/>
                </mxCell>
                <mxCell id="CLXyUNa6UO3o4pGvJHjB-42" value="Post Service" style="rounded=0;whiteSpace=wrap;html=1;strokeColor=default;fontSize=7;movable=0;resizable=0;rotatable=0;deletable=0;editable=0;connectable=0;" vertex="1" parent="FD6kAqHnBY0sS9sEwOvw-1">
                    <mxGeometry x="534" y="248.25" width="92" height="34.75" as="geometry"/>
                </mxCell>
                <mxCell id="IHDC7Kv4NmnlSQtLo-zi-8" value="" style="edgeStyle=none;html=1;fontSize=7;entryX=0.5;entryY=0;entryDx=0;entryDy=0;movable=0;resizable=0;rotatable=0;deletable=0;editable=0;connectable=0;" edge="1" parent="FD6kAqHnBY0sS9sEwOvw-1" source="CLXyUNa6UO3o4pGvJHjB-44" target="IHDC7Kv4NmnlSQtLo-zi-0">
                    <mxGeometry relative="1" as="geometry"/>
                </mxCell>
                <mxCell id="CLXyUNa6UO3o4pGvJHjB-44" value="" style="rounded=1;whiteSpace=wrap;html=1;strokeColor=default;fontSize=7;movable=0;resizable=0;rotatable=0;deletable=0;editable=0;connectable=0;" vertex="1" parent="FD6kAqHnBY0sS9sEwOvw-1">
                    <mxGeometry x="534" y="304" width="91" height="78" as="geometry"/>
                </mxCell>
                <mxCell id="CLXyUNa6UO3o4pGvJHjB-45" value="" style="outlineConnect=0;dashed=0;verticalLabelPosition=bottom;verticalAlign=top;align=center;html=1;shape=mxgraph.aws3.cache_node;fillColor=#2E73B8;gradientColor=none;strokeColor=default;fontSize=7;movable=0;resizable=0;rotatable=0;deletable=0;editable=0;connectable=0;" vertex="1" parent="FD6kAqHnBY0sS9sEwOvw-1">
                    <mxGeometry x="545.5" y="314" width="26" height="23" as="geometry"/>
                </mxCell>
                <mxCell id="CLXyUNa6UO3o4pGvJHjB-46" value="" style="outlineConnect=0;dashed=0;verticalLabelPosition=bottom;verticalAlign=top;align=center;html=1;shape=mxgraph.aws3.cache_node;fillColor=#2E73B8;gradientColor=none;strokeColor=default;fontSize=7;movable=0;resizable=0;rotatable=0;deletable=0;editable=0;connectable=0;" vertex="1" parent="FD6kAqHnBY0sS9sEwOvw-1">
                    <mxGeometry x="564.5" y="328" width="26" height="23" as="geometry"/>
                </mxCell>
                <mxCell id="CLXyUNa6UO3o4pGvJHjB-47" value="" style="outlineConnect=0;dashed=0;verticalLabelPosition=bottom;verticalAlign=top;align=center;html=1;shape=mxgraph.aws3.cache_node;fillColor=#2E73B8;gradientColor=none;strokeColor=default;fontSize=7;movable=0;resizable=0;rotatable=0;deletable=0;editable=0;connectable=0;" vertex="1" parent="FD6kAqHnBY0sS9sEwOvw-1">
                    <mxGeometry x="583" y="341" width="26" height="23" as="geometry"/>
                </mxCell>
                <mxCell id="CLXyUNa6UO3o4pGvJHjB-48" value="Post Cache" style="text;html=1;strokeColor=none;fillColor=none;align=center;verticalAlign=middle;whiteSpace=wrap;rounded=0;fontSize=7;fontStyle=1;movable=0;resizable=0;rotatable=0;deletable=0;editable=0;connectable=0;" vertex="1" parent="FD6kAqHnBY0sS9sEwOvw-1">
                    <mxGeometry x="547.5" y="355" width="60" height="30" as="geometry"/>
                </mxCell>
                <mxCell id="IHDC7Kv4NmnlSQtLo-zi-0" value="" style="rounded=1;whiteSpace=wrap;html=1;strokeColor=default;fontSize=7;movable=0;resizable=0;rotatable=0;deletable=0;editable=0;connectable=0;" vertex="1" parent="FD6kAqHnBY0sS9sEwOvw-1">
                    <mxGeometry x="533.75" y="401" width="89.5" height="76" as="geometry"/>
                </mxCell>
                <mxCell id="IHDC7Kv4NmnlSQtLo-zi-4" value="Post DB" style="text;html=1;strokeColor=none;fillColor=none;align=center;verticalAlign=middle;whiteSpace=wrap;rounded=0;fontSize=7;fontStyle=1;movable=0;resizable=0;rotatable=0;deletable=0;editable=0;connectable=0;" vertex="1" parent="FD6kAqHnBY0sS9sEwOvw-1">
                    <mxGeometry x="546.25" y="450" width="60" height="30" as="geometry"/>
                </mxCell>
                <mxCell id="IHDC7Kv4NmnlSQtLo-zi-29" style="edgeStyle=none;html=1;exitX=1;exitY=0.5;exitDx=0;exitDy=0;entryX=0;entryY=0.5;entryDx=0;entryDy=0;fontSize=4;movable=0;resizable=0;rotatable=0;deletable=0;editable=0;connectable=0;" edge="1" parent="FD6kAqHnBY0sS9sEwOvw-1" source="IHDC7Kv4NmnlSQtLo-zi-9" target="IHDC7Kv4NmnlSQtLo-zi-18">
                    <mxGeometry relative="1" as="geometry"/>
                </mxCell>
                <mxCell id="IHDC7Kv4NmnlSQtLo-zi-31" value="Get friends ID" style="edgeLabel;html=1;align=center;verticalAlign=middle;resizable=0;points=[];fontSize=4;movable=0;rotatable=0;deletable=0;editable=0;connectable=0;" vertex="1" connectable="0" parent="IHDC7Kv4NmnlSQtLo-zi-29">
                    <mxGeometry x="-0.2721" y="-1" relative="1" as="geometry">
                        <mxPoint as="offset"/>
                    </mxGeometry>
                </mxCell>
                <mxCell id="IHDC7Kv4NmnlSQtLo-zi-32" style="edgeStyle=none;html=1;exitX=1;exitY=0.5;exitDx=0;exitDy=0;entryX=0.5;entryY=0;entryDx=0;entryDy=0;fontSize=4;movable=0;resizable=0;rotatable=0;deletable=0;editable=0;connectable=0;" edge="1" parent="FD6kAqHnBY0sS9sEwOvw-1" source="IHDC7Kv4NmnlSQtLo-zi-9" target="IHDC7Kv4NmnlSQtLo-zi-19">
                    <mxGeometry relative="1" as="geometry"/>
                </mxCell>
                <mxCell id="IHDC7Kv4NmnlSQtLo-zi-33" value="Get fiends data" style="edgeLabel;html=1;align=center;verticalAlign=middle;resizable=0;points=[];fontSize=4;movable=0;rotatable=0;deletable=0;editable=0;connectable=0;" vertex="1" connectable="0" parent="IHDC7Kv4NmnlSQtLo-zi-32">
                    <mxGeometry x="-0.2316" relative="1" as="geometry">
                        <mxPoint as="offset"/>
                    </mxGeometry>
                </mxCell>
                <mxCell id="CFPQhiUIddPQ8o0EjyZj-9" style="edgeStyle=none;html=1;exitX=0.5;exitY=1;exitDx=0;exitDy=0;fontSize=4;movable=0;resizable=0;rotatable=0;deletable=0;editable=0;connectable=0;" edge="1" parent="FD6kAqHnBY0sS9sEwOvw-1" source="IHDC7Kv4NmnlSQtLo-zi-9" target="CFPQhiUIddPQ8o0EjyZj-0">
                    <mxGeometry relative="1" as="geometry"/>
                </mxCell>
                <mxCell id="IHDC7Kv4NmnlSQtLo-zi-9" value="Fanout Service" style="rounded=0;whiteSpace=wrap;html=1;strokeColor=default;fontSize=7;movable=0;resizable=0;rotatable=0;deletable=0;editable=0;connectable=0;" vertex="1" parent="FD6kAqHnBY0sS9sEwOvw-1">
                    <mxGeometry x="672" y="322.63" width="92" height="34.75" as="geometry"/>
                </mxCell>
                <mxCell id="IHDC7Kv4NmnlSQtLo-zi-11" value="" style="sketch=0;aspect=fixed;html=1;points=[];align=center;image;fontSize=12;image=img/lib/mscae/Database_General.svg;strokeColor=default;movable=0;resizable=0;rotatable=0;deletable=0;editable=0;connectable=0;" vertex="1" parent="FD6kAqHnBY0sS9sEwOvw-1">
                    <mxGeometry x="552" y="413" width="17.48" height="23" as="geometry"/>
                </mxCell>
                <mxCell id="IHDC7Kv4NmnlSQtLo-zi-12" value="" style="sketch=0;aspect=fixed;html=1;points=[];align=center;image;fontSize=12;image=img/lib/mscae/Database_General.svg;strokeColor=default;movable=0;resizable=0;rotatable=0;deletable=0;editable=0;connectable=0;" vertex="1" parent="FD6kAqHnBY0sS9sEwOvw-1">
                    <mxGeometry x="568.52" y="425" width="17.48" height="23" as="geometry"/>
                </mxCell>
                <mxCell id="IHDC7Kv4NmnlSQtLo-zi-15" value="" style="sketch=0;aspect=fixed;html=1;points=[];align=center;image;fontSize=12;image=img/lib/mscae/Database_General.svg;strokeColor=default;movable=0;resizable=0;rotatable=0;deletable=0;editable=0;connectable=0;" vertex="1" parent="FD6kAqHnBY0sS9sEwOvw-1">
                    <mxGeometry x="586" y="436" width="17.48" height="23" as="geometry"/>
                </mxCell>
                <mxCell id="IHDC7Kv4NmnlSQtLo-zi-17" value="&lt;font style=&quot;font-size: 4px;&quot;&gt;Graph DB&lt;/font&gt;" style="sketch=0;aspect=fixed;html=1;points=[];align=center;image;fontSize=4;image=img/lib/mscae/Database_General.svg;strokeColor=default;movable=0;resizable=0;rotatable=0;deletable=0;editable=0;connectable=0;" vertex="1" parent="FD6kAqHnBY0sS9sEwOvw-1">
                    <mxGeometry x="851" y="322.51" width="17.48" height="23" as="geometry"/>
                </mxCell>
                <mxCell id="IHDC7Kv4NmnlSQtLo-zi-30" style="edgeStyle=none;html=1;exitX=1;exitY=0.5;exitDx=0;exitDy=0;entryX=0;entryY=0.5;entryDx=0;entryDy=0;fontSize=4;movable=0;resizable=0;rotatable=0;deletable=0;editable=0;connectable=0;" edge="1" parent="FD6kAqHnBY0sS9sEwOvw-1" source="IHDC7Kv4NmnlSQtLo-zi-19" target="IHDC7Kv4NmnlSQtLo-zi-24">
                    <mxGeometry relative="1" as="geometry"/>
                </mxCell>
                <mxCell id="IHDC7Kv4NmnlSQtLo-zi-19" value="" style="rounded=1;whiteSpace=wrap;html=1;strokeColor=default;fontSize=7;movable=0;resizable=0;rotatable=0;deletable=0;editable=0;connectable=0;" vertex="1" parent="FD6kAqHnBY0sS9sEwOvw-1">
                    <mxGeometry x="779" y="397" width="89.5" height="76" as="geometry"/>
                </mxCell>
                <mxCell id="IHDC7Kv4NmnlSQtLo-zi-20" value="" style="outlineConnect=0;dashed=0;verticalLabelPosition=bottom;verticalAlign=top;align=center;html=1;shape=mxgraph.aws3.cache_node;fillColor=#2E73B8;gradientColor=none;strokeColor=default;fontSize=7;movable=0;resizable=0;rotatable=0;deletable=0;editable=0;connectable=0;" vertex="1" parent="FD6kAqHnBY0sS9sEwOvw-1">
                    <mxGeometry x="790.5" y="407" width="26" height="23" as="geometry"/>
                </mxCell>
                <mxCell id="IHDC7Kv4NmnlSQtLo-zi-21" value="" style="outlineConnect=0;dashed=0;verticalLabelPosition=bottom;verticalAlign=top;align=center;html=1;shape=mxgraph.aws3.cache_node;fillColor=#2E73B8;gradientColor=none;strokeColor=default;fontSize=7;movable=0;resizable=0;rotatable=0;deletable=0;editable=0;connectable=0;" vertex="1" parent="FD6kAqHnBY0sS9sEwOvw-1">
                    <mxGeometry x="809.5" y="421" width="26" height="23" as="geometry"/>
                </mxCell>
                <mxCell id="IHDC7Kv4NmnlSQtLo-zi-22" value="" style="outlineConnect=0;dashed=0;verticalLabelPosition=bottom;verticalAlign=top;align=center;html=1;shape=mxgraph.aws3.cache_node;fillColor=#2E73B8;gradientColor=none;strokeColor=default;fontSize=7;movable=0;resizable=0;rotatable=0;deletable=0;editable=0;connectable=0;" vertex="1" parent="FD6kAqHnBY0sS9sEwOvw-1">
                    <mxGeometry x="828" y="434" width="26" height="23" as="geometry"/>
                </mxCell>
                <mxCell id="IHDC7Kv4NmnlSQtLo-zi-23" value="User Cache" style="text;html=1;strokeColor=none;fillColor=none;align=center;verticalAlign=middle;whiteSpace=wrap;rounded=0;fontSize=7;fontStyle=1;movable=0;resizable=0;rotatable=0;deletable=0;editable=0;connectable=0;" vertex="1" parent="FD6kAqHnBY0sS9sEwOvw-1">
                    <mxGeometry x="792.5" y="446" width="60" height="30" as="geometry"/>
                </mxCell>
                <mxCell id="IHDC7Kv4NmnlSQtLo-zi-24" value="" style="rounded=1;whiteSpace=wrap;html=1;strokeColor=default;fontSize=7;movable=0;resizable=0;rotatable=0;deletable=0;editable=0;connectable=0;" vertex="1" parent="FD6kAqHnBY0sS9sEwOvw-1">
                    <mxGeometry x="904" y="396.5" width="89.5" height="76" as="geometry"/>
                </mxCell>
                <mxCell id="IHDC7Kv4NmnlSQtLo-zi-25" value="User DB" style="text;html=1;strokeColor=none;fillColor=none;align=center;verticalAlign=middle;whiteSpace=wrap;rounded=0;fontSize=7;fontStyle=1;movable=0;resizable=0;rotatable=0;deletable=0;editable=0;connectable=0;" vertex="1" parent="FD6kAqHnBY0sS9sEwOvw-1">
                    <mxGeometry x="916.5" y="445.5" width="60" height="30" as="geometry"/>
                </mxCell>
                <mxCell id="IHDC7Kv4NmnlSQtLo-zi-26" value="" style="sketch=0;aspect=fixed;html=1;points=[];align=center;image;fontSize=12;image=img/lib/mscae/Database_General.svg;strokeColor=default;movable=0;resizable=0;rotatable=0;deletable=0;editable=0;connectable=0;" vertex="1" parent="FD6kAqHnBY0sS9sEwOvw-1">
                    <mxGeometry x="922.25" y="408.5" width="17.48" height="23" as="geometry"/>
                </mxCell>
                <mxCell id="IHDC7Kv4NmnlSQtLo-zi-27" value="" style="sketch=0;aspect=fixed;html=1;points=[];align=center;image;fontSize=12;image=img/lib/mscae/Database_General.svg;strokeColor=default;movable=0;resizable=0;rotatable=0;deletable=0;editable=0;connectable=0;" vertex="1" parent="FD6kAqHnBY0sS9sEwOvw-1">
                    <mxGeometry x="938.77" y="420.5" width="17.48" height="23" as="geometry"/>
                </mxCell>
                <mxCell id="IHDC7Kv4NmnlSQtLo-zi-28" value="" style="sketch=0;aspect=fixed;html=1;points=[];align=center;image;fontSize=12;image=img/lib/mscae/Database_General.svg;strokeColor=default;movable=0;resizable=0;rotatable=0;deletable=0;editable=0;connectable=0;" vertex="1" parent="FD6kAqHnBY0sS9sEwOvw-1">
                    <mxGeometry x="956.25" y="431.5" width="17.48" height="23" as="geometry"/>
                </mxCell>
                <mxCell id="CFPQhiUIddPQ8o0EjyZj-0" value="" style="strokeWidth=2;html=1;shape=mxgraph.flowchart.direct_data;whiteSpace=wrap;dashed=1;fontSize=13;fontColor=#FFFFFF;rotation=0;flipH=1;movable=0;resizable=0;rotatable=0;deletable=0;editable=0;connectable=0;" vertex="1" parent="FD6kAqHnBY0sS9sEwOvw-1">
                    <mxGeometry x="675.5" y="410.38" width="87.5" height="39.62" as="geometry"/>
                </mxCell>
                <mxCell id="CFPQhiUIddPQ8o0EjyZj-1" value="" style="html=1;verticalLabelPosition=bottom;align=center;labelBackgroundColor=#ffffff;verticalAlign=top;strokeWidth=2;strokeColor=#0080F0;shadow=0;dashed=0;shape=mxgraph.ios7.icons.mail;fontSize=13;fontColor=#FFFFFF;movable=0;resizable=0;rotatable=0;deletable=0;editable=0;connectable=0;" vertex="1" parent="FD6kAqHnBY0sS9sEwOvw-1">
                    <mxGeometry x="697" y="424.44" width="16" height="9.52" as="geometry"/>
                </mxCell>
                <mxCell id="CFPQhiUIddPQ8o0EjyZj-16" style="edgeStyle=none;html=1;exitX=0.5;exitY=1;exitDx=0;exitDy=0;fontSize=4;movable=0;resizable=0;rotatable=0;deletable=0;editable=0;connectable=0;" edge="1" parent="FD6kAqHnBY0sS9sEwOvw-1" source="CFPQhiUIddPQ8o0EjyZj-2" target="CFPQhiUIddPQ8o0EjyZj-8">
                    <mxGeometry relative="1" as="geometry"/>
                </mxCell>
                <mxCell id="CFPQhiUIddPQ8o0EjyZj-2" value="Message Queue" style="text;html=1;strokeColor=none;fillColor=none;align=center;verticalAlign=middle;whiteSpace=wrap;rounded=0;dashed=1;fontSize=5;fontColor=#FFFFFF;movable=0;resizable=0;rotatable=0;deletable=0;editable=0;connectable=0;" vertex="1" parent="FD6kAqHnBY0sS9sEwOvw-1">
                    <mxGeometry x="700" y="435.94" width="41.75" height="13.98" as="geometry"/>
                </mxCell>
                <mxCell id="CFPQhiUIddPQ8o0EjyZj-3" value="" style="html=1;verticalLabelPosition=bottom;align=center;labelBackgroundColor=#ffffff;verticalAlign=top;strokeWidth=2;strokeColor=#0080F0;shadow=0;dashed=0;shape=mxgraph.ios7.icons.mail;fontSize=13;fontColor=#FFFFFF;movable=0;resizable=0;rotatable=0;deletable=0;editable=0;connectable=0;" vertex="1" parent="FD6kAqHnBY0sS9sEwOvw-1">
                    <mxGeometry x="718" y="424.44" width="16" height="9.52" as="geometry"/>
                </mxCell>
                <mxCell id="CFPQhiUIddPQ8o0EjyZj-4" value="" style="html=1;verticalLabelPosition=bottom;align=center;labelBackgroundColor=#ffffff;verticalAlign=top;strokeWidth=2;strokeColor=#0080F0;shadow=0;dashed=0;shape=mxgraph.ios7.icons.mail;fontSize=13;fontColor=#FFFFFF;movable=0;resizable=0;rotatable=0;deletable=0;editable=0;connectable=0;" vertex="1" parent="FD6kAqHnBY0sS9sEwOvw-1">
                    <mxGeometry x="738" y="424.44" width="16" height="9.52" as="geometry"/>
                </mxCell>
                <mxCell id="CFPQhiUIddPQ8o0EjyZj-5" value="Web Servers" style="text;html=1;strokeColor=none;fillColor=none;align=center;verticalAlign=middle;whiteSpace=wrap;rounded=0;fontSize=7;fontStyle=1;movable=0;resizable=0;rotatable=0;deletable=0;editable=0;connectable=0;" vertex="1" parent="FD6kAqHnBY0sS9sEwOvw-1">
                    <mxGeometry x="655" y="272" width="60" height="30" as="geometry"/>
                </mxCell>
                <mxCell id="CFPQhiUIddPQ8o0EjyZj-6" value="" style="sketch=0;pointerEvents=1;shadow=0;dashed=0;html=1;strokeColor=none;fillColor=#505050;labelPosition=center;verticalLabelPosition=bottom;verticalAlign=top;outlineConnect=0;align=center;shape=mxgraph.office.servers.server_farm;fillColor=#7FBA42;fontSize=13;movable=0;resizable=0;rotatable=0;deletable=0;editable=0;connectable=0;" vertex="1" parent="FD6kAqHnBY0sS9sEwOvw-1">
                    <mxGeometry x="701.5" y="495" width="40" height="36" as="geometry"/>
                </mxCell>
                <mxCell id="CFPQhiUIddPQ8o0EjyZj-15" style="edgeStyle=none;html=1;exitX=0.5;exitY=1;exitDx=0;exitDy=0;fontSize=4;movable=0;resizable=0;rotatable=0;deletable=0;editable=0;connectable=0;" edge="1" parent="FD6kAqHnBY0sS9sEwOvw-1" source="CFPQhiUIddPQ8o0EjyZj-7" target="CFPQhiUIddPQ8o0EjyZj-10">
                    <mxGeometry relative="1" as="geometry"/>
                </mxCell>
                <mxCell id="CFPQhiUIddPQ8o0EjyZj-7" value="Fanout Workers" style="text;html=1;strokeColor=none;fillColor=none;align=center;verticalAlign=middle;whiteSpace=wrap;rounded=0;fontSize=7;fontStyle=1;movable=0;resizable=0;rotatable=0;deletable=0;editable=0;connectable=0;" vertex="1" parent="FD6kAqHnBY0sS9sEwOvw-1">
                    <mxGeometry x="691.5" y="531" width="60" height="30" as="geometry"/>
                </mxCell>
                <mxCell id="CFPQhiUIddPQ8o0EjyZj-10" value="" style="rounded=1;whiteSpace=wrap;html=1;strokeColor=default;fontSize=7;movable=0;resizable=0;rotatable=0;deletable=0;editable=0;connectable=0;dashed=1;" vertex="1" parent="FD6kAqHnBY0sS9sEwOvw-1">
                    <mxGeometry x="676.5" y="591" width="89.5" height="76" as="geometry"/>
                </mxCell>
                <mxCell id="CFPQhiUIddPQ8o0EjyZj-11" value="" style="outlineConnect=0;dashed=0;verticalLabelPosition=bottom;verticalAlign=top;align=center;html=1;shape=mxgraph.aws3.cache_node;fillColor=#2E73B8;gradientColor=none;strokeColor=default;fontSize=7;movable=0;resizable=0;rotatable=0;deletable=0;editable=0;connectable=0;" vertex="1" parent="FD6kAqHnBY0sS9sEwOvw-1">
                    <mxGeometry x="688" y="601" width="26" height="23" as="geometry"/>
                </mxCell>
                <mxCell id="CFPQhiUIddPQ8o0EjyZj-12" value="" style="outlineConnect=0;dashed=0;verticalLabelPosition=bottom;verticalAlign=top;align=center;html=1;shape=mxgraph.aws3.cache_node;fillColor=#2E73B8;gradientColor=none;strokeColor=default;fontSize=7;movable=0;resizable=0;rotatable=0;deletable=0;editable=0;connectable=0;" vertex="1" parent="FD6kAqHnBY0sS9sEwOvw-1">
                    <mxGeometry x="707" y="615" width="26" height="23" as="geometry"/>
                </mxCell>
                <mxCell id="CFPQhiUIddPQ8o0EjyZj-13" value="" style="outlineConnect=0;dashed=0;verticalLabelPosition=bottom;verticalAlign=top;align=center;html=1;shape=mxgraph.aws3.cache_node;fillColor=#2E73B8;gradientColor=none;strokeColor=default;fontSize=7;movable=0;resizable=0;rotatable=0;deletable=0;editable=0;connectable=0;" vertex="1" parent="FD6kAqHnBY0sS9sEwOvw-1">
                    <mxGeometry x="725.5" y="628" width="26" height="23" as="geometry"/>
                </mxCell>
                <mxCell id="CFPQhiUIddPQ8o0EjyZj-14" value="Newsfeed Cache" style="text;html=1;strokeColor=none;fillColor=none;align=center;verticalAlign=middle;whiteSpace=wrap;rounded=0;fontSize=7;fontStyle=1;movable=0;resizable=0;rotatable=0;deletable=0;editable=0;connectable=0;dashed=1;" vertex="1" parent="FD6kAqHnBY0sS9sEwOvw-1">
                    <mxGeometry x="690" y="640" width="60" height="30" as="geometry"/>
                </mxCell>
                <mxCell id="CFPQhiUIddPQ8o0EjyZj-17" value="1" style="ellipse;whiteSpace=wrap;html=1;aspect=fixed;strokeWidth=2;fontFamily=Tahoma;spacingBottom=4;spacingRight=2;strokeColor=#d3d3d3;dashed=1;fontSize=4;movable=0;resizable=0;rotatable=0;deletable=0;editable=0;connectable=0;" vertex="1" parent="FD6kAqHnBY0sS9sEwOvw-1">
                    <mxGeometry x="790.5" y="327" width="10" height="10" as="geometry"/>
                </mxCell>
                <mxCell id="CFPQhiUIddPQ8o0EjyZj-18" value="2" style="ellipse;whiteSpace=wrap;html=1;aspect=fixed;strokeWidth=2;fontFamily=Tahoma;spacingBottom=4;spacingRight=2;strokeColor=#d3d3d3;dashed=1;fontSize=4;movable=0;resizable=0;rotatable=0;deletable=0;editable=0;connectable=0;" vertex="1" parent="FD6kAqHnBY0sS9sEwOvw-1">
                    <mxGeometry x="777" y="372" width="10" height="10" as="geometry"/>
                </mxCell>
                <mxCell id="CFPQhiUIddPQ8o0EjyZj-19" value="3" style="ellipse;whiteSpace=wrap;html=1;aspect=fixed;strokeWidth=2;fontFamily=Tahoma;spacingBottom=4;spacingRight=2;strokeColor=#d3d3d3;dashed=1;fontSize=4;movable=0;resizable=0;rotatable=0;deletable=0;editable=0;connectable=0;" vertex="1" parent="FD6kAqHnBY0sS9sEwOvw-1">
                    <mxGeometry x="728" y="375" width="10" height="10" as="geometry"/>
                </mxCell>
                <mxCell id="CFPQhiUIddPQ8o0EjyZj-20" value="4" style="ellipse;whiteSpace=wrap;html=1;aspect=fixed;strokeWidth=2;fontFamily=Tahoma;spacingBottom=4;spacingRight=2;strokeColor=#d3d3d3;dashed=1;fontSize=4;movable=0;resizable=0;rotatable=0;deletable=0;editable=0;connectable=0;" vertex="1" parent="FD6kAqHnBY0sS9sEwOvw-1">
                    <mxGeometry x="728" y="457" width="10" height="10" as="geometry"/>
                </mxCell>
                <mxCell id="CFPQhiUIddPQ8o0EjyZj-21" value="5" style="ellipse;whiteSpace=wrap;html=1;aspect=fixed;strokeWidth=2;fontFamily=Tahoma;spacingBottom=4;spacingRight=2;strokeColor=#d3d3d3;dashed=1;fontSize=4;movable=0;resizable=0;rotatable=0;deletable=0;editable=0;connectable=0;" vertex="1" parent="FD6kAqHnBY0sS9sEwOvw-1">
                    <mxGeometry x="728" y="568" width="10" height="10" as="geometry"/>
                </mxCell>
                <mxCell id="CFPQhiUIddPQ8o0EjyZj-26" style="edgeStyle=none;html=1;exitX=0;exitY=0.5;exitDx=0;exitDy=0;fontSize=4;movable=0;resizable=0;rotatable=0;deletable=0;editable=0;connectable=0;" edge="1" parent="FD6kAqHnBY0sS9sEwOvw-1" source="CFPQhiUIddPQ8o0EjyZj-22" target="CFPQhiUIddPQ8o0EjyZj-25">
                    <mxGeometry relative="1" as="geometry"/>
                </mxCell>
                <mxCell id="fg_xgXwE2P955qmjFdJ0-1" style="edgeStyle=none;html=1;exitX=1;exitY=0.5;exitDx=0;exitDy=0;fontSize=4;movable=0;resizable=0;rotatable=0;deletable=0;editable=0;connectable=0;" edge="1" parent="FD6kAqHnBY0sS9sEwOvw-1" source="CFPQhiUIddPQ8o0EjyZj-22" target="fg_xgXwE2P955qmjFdJ0-0">
                    <mxGeometry relative="1" as="geometry"/>
                </mxCell>
                <mxCell id="fg_xgXwE2P955qmjFdJ0-3" style="edgeStyle=none;html=1;exitX=0.25;exitY=1;exitDx=0;exitDy=0;entryX=0.511;entryY=0.156;entryDx=0;entryDy=0;entryPerimeter=0;fontSize=8;movable=0;resizable=0;rotatable=0;deletable=0;editable=0;connectable=0;" edge="1" parent="FD6kAqHnBY0sS9sEwOvw-1" source="CFPQhiUIddPQ8o0EjyZj-22" target="fg_xgXwE2P955qmjFdJ0-2">
                    <mxGeometry relative="1" as="geometry"/>
                </mxCell>
                <mxCell id="CFPQhiUIddPQ8o0EjyZj-22" value="User" style="rounded=1;whiteSpace=wrap;html=1;fontSize=13;fontColor=#FFFFFF;movable=0;resizable=0;rotatable=0;deletable=0;editable=0;connectable=0;" vertex="1" parent="FD6kAqHnBY0sS9sEwOvw-1">
                    <mxGeometry x="1220" y="94" width="107" height="60" as="geometry"/>
                </mxCell>
                <mxCell id="CFPQhiUIddPQ8o0EjyZj-23" value="" style="sketch=0;pointerEvents=1;shadow=0;dashed=0;html=1;strokeColor=#82b366;fillColor=#d5e8d4;labelPosition=center;verticalLabelPosition=bottom;verticalAlign=top;align=center;outlineConnect=0;shape=mxgraph.veeam2.laptop;fontSize=13;movable=0;resizable=0;rotatable=0;deletable=0;editable=0;connectable=0;" vertex="1" parent="FD6kAqHnBY0sS9sEwOvw-1">
                    <mxGeometry x="1222" y="112" width="35" height="24" as="geometry"/>
                </mxCell>
                <mxCell id="CFPQhiUIddPQ8o0EjyZj-24" value="" style="html=1;verticalLabelPosition=bottom;align=center;labelBackgroundColor=#ffffff;verticalAlign=top;strokeWidth=2;strokeColor=#82b366;shadow=0;dashed=0;shape=mxgraph.ios7.icons.smartphone;fontSize=13;movable=0;resizable=0;rotatable=0;deletable=0;editable=0;connectable=0;fillColor=#d5e8d4;" vertex="1" parent="FD6kAqHnBY0sS9sEwOvw-1">
                    <mxGeometry x="1300" y="109" width="18" height="30" as="geometry"/>
                </mxCell>
                <mxCell id="CFPQhiUIddPQ8o0EjyZj-25" value="" style="sketch=0;aspect=fixed;html=1;points=[];align=center;image;fontSize=12;image=img/lib/mscae/DNS.svg;dashed=1;fontColor=#FFFFFF;movable=0;resizable=0;rotatable=0;deletable=0;editable=0;connectable=0;strokeColor=default;" vertex="1" parent="FD6kAqHnBY0sS9sEwOvw-1">
                    <mxGeometry x="1147" y="103" width="43" height="43" as="geometry"/>
                </mxCell>
                <mxCell id="fg_xgXwE2P955qmjFdJ0-0" value="CDN" style="aspect=fixed;html=1;points=[];align=center;image;fontSize=12;image=img/lib/azure2/app_services/CDN_Profiles.svg;fontColor=#FFFFFF;movable=0;resizable=0;rotatable=0;deletable=0;editable=0;connectable=0;" vertex="1" parent="FD6kAqHnBY0sS9sEwOvw-1">
                    <mxGeometry x="1367" y="112" width="44" height="25.88" as="geometry"/>
                </mxCell>
                <mxCell id="fg_xgXwE2P955qmjFdJ0-19" style="edgeStyle=none;html=1;exitX=0.5;exitY=1;exitDx=0;exitDy=0;exitPerimeter=0;fontSize=8;entryX=0.25;entryY=0;entryDx=0;entryDy=0;movable=0;resizable=0;rotatable=0;deletable=0;editable=0;connectable=0;" edge="1" parent="FD6kAqHnBY0sS9sEwOvw-1" source="fg_xgXwE2P955qmjFdJ0-2" target="fg_xgXwE2P955qmjFdJ0-11">
                    <mxGeometry relative="1" as="geometry">
                        <mxPoint x="1276" y="253" as="targetPoint"/>
                    </mxGeometry>
                </mxCell>
                <mxCell id="fg_xgXwE2P955qmjFdJ0-2" value="&lt;font style=&quot;font-size: 8px;&quot;&gt;Load Balancer&lt;/font&gt;" style="verticalLabelPosition=bottom;html=1;verticalAlign=top;align=center;strokeColor=none;fillColor=#00BEF2;shape=mxgraph.azure.azure_load_balancer;fontSize=13;fontColor=#FFFFFF;movable=0;resizable=0;rotatable=0;deletable=0;editable=0;connectable=0;dashed=1;" vertex="1" parent="FD6kAqHnBY0sS9sEwOvw-1">
                    <mxGeometry x="1226.25" y="176" width="40.5" height="26" as="geometry"/>
                </mxCell>
                <mxCell id="fg_xgXwE2P955qmjFdJ0-20" style="edgeStyle=none;html=1;exitX=0.75;exitY=0;exitDx=0;exitDy=0;fontSize=8;movable=0;resizable=0;rotatable=0;deletable=0;editable=0;connectable=0;" edge="1" parent="FD6kAqHnBY0sS9sEwOvw-1" source="fg_xgXwE2P955qmjFdJ0-11">
                    <mxGeometry relative="1" as="geometry">
                        <mxPoint x="1305" y="152" as="targetPoint"/>
                    </mxGeometry>
                </mxCell>
                <mxCell id="fg_xgXwE2P955qmjFdJ0-23" style="edgeStyle=none;html=1;exitX=0.25;exitY=1;exitDx=0;exitDy=0;fontSize=8;entryX=0.55;entryY=-0.005;entryDx=0;entryDy=0;entryPerimeter=0;movable=0;resizable=0;rotatable=0;deletable=0;editable=0;connectable=0;" edge="1" parent="FD6kAqHnBY0sS9sEwOvw-1" source="fg_xgXwE2P955qmjFdJ0-11" target="fg_xgXwE2P955qmjFdJ0-21">
                    <mxGeometry relative="1" as="geometry">
                        <mxPoint x="1249" y="343" as="targetPoint"/>
                    </mxGeometry>
                </mxCell>
                <mxCell id="fg_xgXwE2P955qmjFdJ0-11" value="" style="rounded=1;whiteSpace=wrap;html=1;fontSize=13;dashed=1;movable=0;resizable=0;rotatable=0;deletable=0;editable=0;connectable=0;" vertex="1" parent="FD6kAqHnBY0sS9sEwOvw-1">
                    <mxGeometry x="1217.25" y="249" width="120" height="60" as="geometry"/>
                </mxCell>
                <mxCell id="fg_xgXwE2P955qmjFdJ0-12" value="" style="sketch=0;pointerEvents=1;shadow=0;dashed=0;html=1;strokeColor=none;fillColor=#505050;labelPosition=center;verticalLabelPosition=bottom;verticalAlign=top;outlineConnect=0;align=center;shape=mxgraph.office.servers.server_farm;fillColor=#7FBA42;fontSize=13;movable=0;resizable=0;rotatable=0;deletable=0;editable=0;connectable=0;" vertex="1" parent="FD6kAqHnBY0sS9sEwOvw-1">
                    <mxGeometry x="1225.25" y="260.25" width="40" height="36" as="geometry"/>
                </mxCell>
                <mxCell id="fg_xgXwE2P955qmjFdJ0-13" value="" style="shape=table;startSize=0;container=1;collapsible=0;childLayout=tableLayout;strokeColor=default;fontSize=13;align=center;horizontal=0;movable=0;resizable=0;rotatable=0;deletable=0;editable=0;connectable=0;" vertex="1" parent="FD6kAqHnBY0sS9sEwOvw-1">
                    <mxGeometry x="1281.25" y="259.5" width="49" height="37.5" as="geometry"/>
                </mxCell>
                <mxCell id="fg_xgXwE2P955qmjFdJ0-14" value="" style="shape=tableRow;horizontal=0;startSize=0;swimlaneHead=0;swimlaneBody=0;top=0;left=0;bottom=0;right=0;collapsible=0;dropTarget=0;fillColor=none;points=[[0,0.5],[1,0.5]];portConstraint=eastwest;dashed=1;strokeColor=default;fontSize=13;movable=0;resizable=0;rotatable=0;deletable=0;editable=0;connectable=0;" vertex="1" parent="fg_xgXwE2P955qmjFdJ0-13">
                    <mxGeometry width="49" height="21" as="geometry"/>
                </mxCell>
                <mxCell id="fg_xgXwE2P955qmjFdJ0-15" value="&lt;font style=&quot;font-size: 7px;&quot;&gt;Authentication&lt;/font&gt;" style="shape=partialRectangle;html=1;whiteSpace=wrap;connectable=0;overflow=hidden;fillColor=none;top=0;left=0;bottom=0;right=0;pointerEvents=1;dashed=1;strokeColor=default;fontSize=13;movable=0;resizable=0;rotatable=0;deletable=0;editable=0;" vertex="1" parent="fg_xgXwE2P955qmjFdJ0-14">
                    <mxGeometry width="49" height="21" as="geometry">
                        <mxRectangle width="49" height="21" as="alternateBounds"/>
                    </mxGeometry>
                </mxCell>
                <mxCell id="fg_xgXwE2P955qmjFdJ0-16" value="" style="shape=tableRow;horizontal=0;startSize=0;swimlaneHead=0;swimlaneBody=0;top=0;left=0;bottom=0;right=0;collapsible=0;dropTarget=0;fillColor=none;points=[[0,0.5],[1,0.5]];portConstraint=eastwest;dashed=1;strokeColor=default;fontSize=13;movable=0;resizable=0;rotatable=0;deletable=0;editable=0;connectable=0;" vertex="1" parent="fg_xgXwE2P955qmjFdJ0-13">
                    <mxGeometry y="21" width="49" height="17" as="geometry"/>
                </mxCell>
                <mxCell id="fg_xgXwE2P955qmjFdJ0-17" value="&lt;span style=&quot;font-size: 7px;&quot;&gt;Rate limiting&lt;/span&gt;" style="shape=partialRectangle;html=1;whiteSpace=wrap;connectable=0;overflow=hidden;fillColor=none;top=0;left=0;bottom=0;right=0;pointerEvents=1;dashed=1;strokeColor=default;fontSize=13;horizontal=1;align=center;movable=0;resizable=0;rotatable=0;deletable=0;editable=0;" vertex="1" parent="fg_xgXwE2P955qmjFdJ0-16">
                    <mxGeometry width="49" height="17" as="geometry">
                        <mxRectangle width="49" height="17" as="alternateBounds"/>
                    </mxGeometry>
                </mxCell>
                <mxCell id="fg_xgXwE2P955qmjFdJ0-18" value="Web Servers" style="text;html=1;strokeColor=none;fillColor=none;align=center;verticalAlign=middle;whiteSpace=wrap;rounded=0;fontSize=7;fontStyle=1;movable=0;resizable=0;rotatable=0;deletable=0;editable=0;connectable=0;" vertex="1" parent="FD6kAqHnBY0sS9sEwOvw-1">
                    <mxGeometry x="1215.25" y="295" width="60" height="9" as="geometry"/>
                </mxCell>
                <mxCell id="fg_xgXwE2P955qmjFdJ0-35" style="edgeStyle=none;html=1;exitX=1;exitY=0.5;exitDx=0;exitDy=0;entryX=0;entryY=0.5;entryDx=0;entryDy=0;fontSize=8;movable=0;resizable=0;rotatable=0;deletable=0;editable=0;connectable=0;" edge="1" parent="FD6kAqHnBY0sS9sEwOvw-1" source="fg_xgXwE2P955qmjFdJ0-21" target="fg_xgXwE2P955qmjFdJ0-24">
                    <mxGeometry relative="1" as="geometry"/>
                </mxCell>
                <mxCell id="fg_xgXwE2P955qmjFdJ0-57" style="edgeStyle=none;html=1;exitX=0.5;exitY=1;exitDx=0;exitDy=0;fontSize=8;movable=0;resizable=0;rotatable=0;deletable=0;editable=0;connectable=0;" edge="1" parent="FD6kAqHnBY0sS9sEwOvw-1" source="fg_xgXwE2P955qmjFdJ0-21" target="fg_xgXwE2P955qmjFdJ0-52">
                    <mxGeometry relative="1" as="geometry"/>
                </mxCell>
                <mxCell id="fg_xgXwE2P955qmjFdJ0-58" style="edgeStyle=none;html=1;exitX=1;exitY=0.5;exitDx=0;exitDy=0;entryX=0;entryY=0.5;entryDx=0;entryDy=0;fontSize=8;movable=0;resizable=0;rotatable=0;deletable=0;editable=0;connectable=0;" edge="1" parent="FD6kAqHnBY0sS9sEwOvw-1" source="fg_xgXwE2P955qmjFdJ0-21" target="fg_xgXwE2P955qmjFdJ0-42">
                    <mxGeometry relative="1" as="geometry"/>
                </mxCell>
                <mxCell id="fg_xgXwE2P955qmjFdJ0-21" value="Newsfeed Service" style="rounded=0;whiteSpace=wrap;html=1;strokeColor=default;fontSize=7;movable=0;resizable=0;rotatable=0;deletable=0;editable=0;connectable=0;" vertex="1" parent="FD6kAqHnBY0sS9sEwOvw-1">
                    <mxGeometry x="1196.9999999999998" y="345" width="92" height="37" as="geometry"/>
                </mxCell>
                <mxCell id="fg_xgXwE2P955qmjFdJ0-34" style="edgeStyle=none;html=1;exitX=1;exitY=0.5;exitDx=0;exitDy=0;entryX=0;entryY=0.5;entryDx=0;entryDy=0;fontSize=8;movable=0;resizable=0;rotatable=0;deletable=0;editable=0;connectable=0;" edge="1" parent="FD6kAqHnBY0sS9sEwOvw-1" source="fg_xgXwE2P955qmjFdJ0-24" target="fg_xgXwE2P955qmjFdJ0-29">
                    <mxGeometry relative="1" as="geometry"/>
                </mxCell>
                <mxCell id="fg_xgXwE2P955qmjFdJ0-24" value="" style="rounded=1;whiteSpace=wrap;html=1;strokeColor=default;fontSize=7;movable=0;resizable=0;rotatable=0;deletable=0;editable=0;connectable=0;dashed=1;" vertex="1" parent="FD6kAqHnBY0sS9sEwOvw-1">
                    <mxGeometry x="1330" y="326" width="89.5" height="76" as="geometry"/>
                </mxCell>
                <mxCell id="fg_xgXwE2P955qmjFdJ0-25" value="" style="outlineConnect=0;dashed=0;verticalLabelPosition=bottom;verticalAlign=top;align=center;html=1;shape=mxgraph.aws3.cache_node;fillColor=#2E73B8;gradientColor=none;strokeColor=default;fontSize=7;movable=0;resizable=0;rotatable=0;deletable=0;editable=0;connectable=0;" vertex="1" parent="FD6kAqHnBY0sS9sEwOvw-1">
                    <mxGeometry x="1341.5" y="336" width="26" height="23" as="geometry"/>
                </mxCell>
                <mxCell id="fg_xgXwE2P955qmjFdJ0-26" value="" style="outlineConnect=0;dashed=0;verticalLabelPosition=bottom;verticalAlign=top;align=center;html=1;shape=mxgraph.aws3.cache_node;fillColor=#2E73B8;gradientColor=none;strokeColor=default;fontSize=7;movable=0;resizable=0;rotatable=0;deletable=0;editable=0;connectable=0;" vertex="1" parent="FD6kAqHnBY0sS9sEwOvw-1">
                    <mxGeometry x="1360.5" y="350" width="26" height="23" as="geometry"/>
                </mxCell>
                <mxCell id="fg_xgXwE2P955qmjFdJ0-27" value="" style="outlineConnect=0;dashed=0;verticalLabelPosition=bottom;verticalAlign=top;align=center;html=1;shape=mxgraph.aws3.cache_node;fillColor=#2E73B8;gradientColor=none;strokeColor=default;fontSize=7;movable=0;resizable=0;rotatable=0;deletable=0;editable=0;connectable=0;" vertex="1" parent="FD6kAqHnBY0sS9sEwOvw-1">
                    <mxGeometry x="1379" y="363" width="26" height="23" as="geometry"/>
                </mxCell>
                <mxCell id="fg_xgXwE2P955qmjFdJ0-28" value="User Cache" style="text;html=1;strokeColor=none;fillColor=none;align=center;verticalAlign=middle;whiteSpace=wrap;rounded=0;fontSize=7;fontStyle=1;movable=0;resizable=0;rotatable=0;deletable=0;editable=0;connectable=0;dashed=1;" vertex="1" parent="FD6kAqHnBY0sS9sEwOvw-1">
                    <mxGeometry x="1343.5" y="375" width="60" height="30" as="geometry"/>
                </mxCell>
                <mxCell id="fg_xgXwE2P955qmjFdJ0-29" value="" style="rounded=1;whiteSpace=wrap;html=1;strokeColor=default;fontSize=7;movable=0;resizable=0;rotatable=0;deletable=0;editable=0;connectable=0;dashed=1;" vertex="1" parent="FD6kAqHnBY0sS9sEwOvw-1">
                    <mxGeometry x="1462" y="326" width="89.5" height="76" as="geometry"/>
                </mxCell>
                <mxCell id="fg_xgXwE2P955qmjFdJ0-30" value="User DB" style="text;html=1;strokeColor=none;fillColor=none;align=center;verticalAlign=middle;whiteSpace=wrap;rounded=0;fontSize=7;fontStyle=1;movable=0;resizable=0;rotatable=0;deletable=0;editable=0;connectable=0;dashed=1;" vertex="1" parent="FD6kAqHnBY0sS9sEwOvw-1">
                    <mxGeometry x="1474.5" y="375" width="60" height="30" as="geometry"/>
                </mxCell>
                <mxCell id="fg_xgXwE2P955qmjFdJ0-31" value="" style="sketch=0;aspect=fixed;html=1;points=[];align=center;image;fontSize=12;image=img/lib/mscae/Database_General.svg;strokeColor=default;dashed=1;movable=0;resizable=0;rotatable=0;deletable=0;editable=0;connectable=0;" vertex="1" parent="FD6kAqHnBY0sS9sEwOvw-1">
                    <mxGeometry x="1480.25" y="338" width="17.48" height="23" as="geometry"/>
                </mxCell>
                <mxCell id="fg_xgXwE2P955qmjFdJ0-32" value="" style="sketch=0;aspect=fixed;html=1;points=[];align=center;image;fontSize=12;image=img/lib/mscae/Database_General.svg;strokeColor=default;dashed=1;movable=0;resizable=0;rotatable=0;deletable=0;editable=0;connectable=0;" vertex="1" parent="FD6kAqHnBY0sS9sEwOvw-1">
                    <mxGeometry x="1496.77" y="350" width="17.48" height="23" as="geometry"/>
                </mxCell>
                <mxCell id="fg_xgXwE2P955qmjFdJ0-33" value="" style="sketch=0;aspect=fixed;html=1;points=[];align=center;image;fontSize=12;image=img/lib/mscae/Database_General.svg;strokeColor=default;dashed=1;movable=0;resizable=0;rotatable=0;deletable=0;editable=0;connectable=0;" vertex="1" parent="FD6kAqHnBY0sS9sEwOvw-1">
                    <mxGeometry x="1514.25" y="361" width="17.48" height="23" as="geometry"/>
                </mxCell>
                <mxCell id="fg_xgXwE2P955qmjFdJ0-41" style="edgeStyle=none;html=1;exitX=1;exitY=0.5;exitDx=0;exitDy=0;entryX=0;entryY=0.5;entryDx=0;entryDy=0;fontSize=8;movable=0;resizable=0;rotatable=0;deletable=0;editable=0;connectable=0;" edge="1" parent="FD6kAqHnBY0sS9sEwOvw-1" source="fg_xgXwE2P955qmjFdJ0-42" target="fg_xgXwE2P955qmjFdJ0-47">
                    <mxGeometry relative="1" as="geometry"/>
                </mxCell>
                <mxCell id="fg_xgXwE2P955qmjFdJ0-42" value="" style="rounded=1;whiteSpace=wrap;html=1;strokeColor=default;fontSize=7;movable=0;resizable=0;rotatable=0;deletable=0;editable=0;connectable=0;dashed=1;" vertex="1" parent="FD6kAqHnBY0sS9sEwOvw-1">
                    <mxGeometry x="1330.25" y="422.5" width="89.5" height="76" as="geometry"/>
                </mxCell>
                <mxCell id="fg_xgXwE2P955qmjFdJ0-43" value="" style="outlineConnect=0;dashed=0;verticalLabelPosition=bottom;verticalAlign=top;align=center;html=1;shape=mxgraph.aws3.cache_node;fillColor=#2E73B8;gradientColor=none;strokeColor=default;fontSize=7;movable=0;resizable=0;rotatable=0;deletable=0;editable=0;connectable=0;" vertex="1" parent="FD6kAqHnBY0sS9sEwOvw-1">
                    <mxGeometry x="1341.75" y="432.5" width="26" height="23" as="geometry"/>
                </mxCell>
                <mxCell id="fg_xgXwE2P955qmjFdJ0-44" value="" style="outlineConnect=0;dashed=0;verticalLabelPosition=bottom;verticalAlign=top;align=center;html=1;shape=mxgraph.aws3.cache_node;fillColor=#2E73B8;gradientColor=none;strokeColor=default;fontSize=7;movable=0;resizable=0;rotatable=0;deletable=0;editable=0;connectable=0;" vertex="1" parent="FD6kAqHnBY0sS9sEwOvw-1">
                    <mxGeometry x="1360.75" y="446.5" width="26" height="23" as="geometry"/>
                </mxCell>
                <mxCell id="fg_xgXwE2P955qmjFdJ0-45" value="" style="outlineConnect=0;dashed=0;verticalLabelPosition=bottom;verticalAlign=top;align=center;html=1;shape=mxgraph.aws3.cache_node;fillColor=#2E73B8;gradientColor=none;strokeColor=default;fontSize=7;movable=0;resizable=0;rotatable=0;deletable=0;editable=0;connectable=0;" vertex="1" parent="FD6kAqHnBY0sS9sEwOvw-1">
                    <mxGeometry x="1379.25" y="459.5" width="26" height="23" as="geometry"/>
                </mxCell>
                <mxCell id="fg_xgXwE2P955qmjFdJ0-46" value="Post Cache" style="text;html=1;strokeColor=none;fillColor=none;align=center;verticalAlign=middle;whiteSpace=wrap;rounded=0;fontSize=7;fontStyle=1;movable=0;resizable=0;rotatable=0;deletable=0;editable=0;connectable=0;dashed=1;" vertex="1" parent="FD6kAqHnBY0sS9sEwOvw-1">
                    <mxGeometry x="1343.75" y="471.5" width="60" height="30" as="geometry"/>
                </mxCell>
                <mxCell id="fg_xgXwE2P955qmjFdJ0-47" value="" style="rounded=1;whiteSpace=wrap;html=1;strokeColor=default;fontSize=7;movable=0;resizable=0;rotatable=0;deletable=0;editable=0;connectable=0;dashed=1;" vertex="1" parent="FD6kAqHnBY0sS9sEwOvw-1">
                    <mxGeometry x="1462.25" y="422.5" width="89.5" height="76" as="geometry"/>
                </mxCell>
                <mxCell id="fg_xgXwE2P955qmjFdJ0-48" value="Post DB" style="text;html=1;strokeColor=none;fillColor=none;align=center;verticalAlign=middle;whiteSpace=wrap;rounded=0;fontSize=7;fontStyle=1;movable=0;resizable=0;rotatable=0;deletable=0;editable=0;connectable=0;dashed=1;" vertex="1" parent="FD6kAqHnBY0sS9sEwOvw-1">
                    <mxGeometry x="1474.75" y="471.5" width="60" height="30" as="geometry"/>
                </mxCell>
                <mxCell id="fg_xgXwE2P955qmjFdJ0-49" value="" style="sketch=0;aspect=fixed;html=1;points=[];align=center;image;fontSize=12;image=img/lib/mscae/Database_General.svg;strokeColor=default;dashed=1;movable=0;resizable=0;rotatable=0;deletable=0;editable=0;connectable=0;" vertex="1" parent="FD6kAqHnBY0sS9sEwOvw-1">
                    <mxGeometry x="1480.5" y="434.5" width="17.48" height="23" as="geometry"/>
                </mxCell>
                <mxCell id="fg_xgXwE2P955qmjFdJ0-50" value="" style="sketch=0;aspect=fixed;html=1;points=[];align=center;image;fontSize=12;image=img/lib/mscae/Database_General.svg;strokeColor=default;dashed=1;movable=0;resizable=0;rotatable=0;deletable=0;editable=0;connectable=0;" vertex="1" parent="FD6kAqHnBY0sS9sEwOvw-1">
                    <mxGeometry x="1497.02" y="446.5" width="17.48" height="23" as="geometry"/>
                </mxCell>
                <mxCell id="fg_xgXwE2P955qmjFdJ0-51" value="" style="sketch=0;aspect=fixed;html=1;points=[];align=center;image;fontSize=12;image=img/lib/mscae/Database_General.svg;strokeColor=default;dashed=1;movable=0;resizable=0;rotatable=0;deletable=0;editable=0;connectable=0;" vertex="1" parent="FD6kAqHnBY0sS9sEwOvw-1">
                    <mxGeometry x="1514.5" y="457.5" width="17.48" height="23" as="geometry"/>
                </mxCell>
                <mxCell id="fg_xgXwE2P955qmjFdJ0-52" value="" style="rounded=1;whiteSpace=wrap;html=1;strokeColor=default;fontSize=7;movable=0;resizable=0;rotatable=0;deletable=0;editable=0;connectable=0;dashed=1;" vertex="1" parent="FD6kAqHnBY0sS9sEwOvw-1">
                    <mxGeometry x="1200.5" y="424.44" width="89.5" height="76" as="geometry"/>
                </mxCell>
                <mxCell id="fg_xgXwE2P955qmjFdJ0-53" value="" style="outlineConnect=0;dashed=0;verticalLabelPosition=bottom;verticalAlign=top;align=center;html=1;shape=mxgraph.aws3.cache_node;fillColor=#2E73B8;gradientColor=none;strokeColor=default;fontSize=7;movable=0;resizable=0;rotatable=0;deletable=0;editable=0;connectable=0;" vertex="1" parent="FD6kAqHnBY0sS9sEwOvw-1">
                    <mxGeometry x="1212" y="434.44" width="26" height="23" as="geometry"/>
                </mxCell>
                <mxCell id="fg_xgXwE2P955qmjFdJ0-54" value="" style="outlineConnect=0;dashed=0;verticalLabelPosition=bottom;verticalAlign=top;align=center;html=1;shape=mxgraph.aws3.cache_node;fillColor=#2E73B8;gradientColor=none;strokeColor=default;fontSize=7;movable=0;resizable=0;rotatable=0;deletable=0;editable=0;connectable=0;" vertex="1" parent="FD6kAqHnBY0sS9sEwOvw-1">
                    <mxGeometry x="1231" y="448.44" width="26" height="23" as="geometry"/>
                </mxCell>
                <mxCell id="fg_xgXwE2P955qmjFdJ0-55" value="" style="outlineConnect=0;dashed=0;verticalLabelPosition=bottom;verticalAlign=top;align=center;html=1;shape=mxgraph.aws3.cache_node;fillColor=#2E73B8;gradientColor=none;strokeColor=default;fontSize=7;movable=0;resizable=0;rotatable=0;deletable=0;editable=0;connectable=0;" vertex="1" parent="FD6kAqHnBY0sS9sEwOvw-1">
                    <mxGeometry x="1249.5" y="461.44" width="26" height="23" as="geometry"/>
                </mxCell>
                <mxCell id="fg_xgXwE2P955qmjFdJ0-56" value="News Feed Cache" style="text;html=1;strokeColor=none;fillColor=none;align=center;verticalAlign=middle;whiteSpace=wrap;rounded=0;fontSize=7;fontStyle=1;movable=0;resizable=0;rotatable=0;deletable=0;editable=0;connectable=0;dashed=1;" vertex="1" parent="FD6kAqHnBY0sS9sEwOvw-1">
                    <mxGeometry x="1214" y="473.44" width="60" height="30" as="geometry"/>
                </mxCell>
                <mxCell id="fg_xgXwE2P955qmjFdJ0-59" value="/v1/me/feed" style="text;html=1;strokeColor=none;fillColor=none;align=center;verticalAlign=middle;whiteSpace=wrap;rounded=0;dashed=1;fontSize=8;movable=0;resizable=0;rotatable=0;deletable=0;editable=0;connectable=0;" vertex="1" parent="FD6kAqHnBY0sS9sEwOvw-1">
                    <mxGeometry x="1180" y="159" width="60" height="13" as="geometry"/>
                </mxCell>
                <mxCell id="fg_xgXwE2P955qmjFdJ0-61" value="1" style="ellipse;whiteSpace=wrap;html=1;aspect=fixed;strokeWidth=2;fontFamily=Tahoma;spacingBottom=4;spacingRight=2;strokeColor=#d3d3d3;dashed=1;fontSize=4;movable=0;resizable=0;rotatable=0;deletable=0;editable=0;connectable=0;" vertex="1" parent="FD6kAqHnBY0sS9sEwOvw-1">
                    <mxGeometry x="1197" y="149" width="10" height="10" as="geometry"/>
                </mxCell>
                <mxCell id="fg_xgXwE2P955qmjFdJ0-62" value="2" style="ellipse;whiteSpace=wrap;html=1;aspect=fixed;strokeWidth=2;fontFamily=Tahoma;spacingBottom=4;spacingRight=2;strokeColor=#d3d3d3;dashed=1;fontSize=4;movable=0;resizable=0;rotatable=0;deletable=0;editable=0;connectable=0;" vertex="1" parent="FD6kAqHnBY0sS9sEwOvw-1">
                    <mxGeometry x="1225.25" y="232" width="10" height="10" as="geometry"/>
                </mxCell>
                <mxCell id="fg_xgXwE2P955qmjFdJ0-63" value="3" style="ellipse;whiteSpace=wrap;html=1;aspect=fixed;strokeWidth=2;fontFamily=Tahoma;spacingBottom=4;spacingRight=2;strokeColor=#d3d3d3;dashed=1;fontSize=4;movable=0;resizable=0;rotatable=0;deletable=0;editable=0;connectable=0;" vertex="1" parent="FD6kAqHnBY0sS9sEwOvw-1">
                    <mxGeometry x="1225" y="328" width="10" height="10" as="geometry"/>
                </mxCell>
                <mxCell id="fg_xgXwE2P955qmjFdJ0-64" value="4" style="ellipse;whiteSpace=wrap;html=1;aspect=fixed;strokeWidth=2;fontFamily=Tahoma;spacingBottom=4;spacingRight=2;strokeColor=#d3d3d3;dashed=1;fontSize=4;movable=0;resizable=0;rotatable=0;deletable=0;editable=0;connectable=0;" vertex="1" parent="FD6kAqHnBY0sS9sEwOvw-1">
                    <mxGeometry x="1225" y="401" width="10" height="10" as="geometry"/>
                </mxCell>
                <mxCell id="fg_xgXwE2P955qmjFdJ0-65" value="5" style="ellipse;whiteSpace=wrap;html=1;aspect=fixed;strokeWidth=2;fontFamily=Tahoma;spacingBottom=4;spacingRight=2;strokeColor=#d3d3d3;dashed=1;fontSize=4;movable=0;resizable=0;rotatable=0;deletable=0;editable=0;connectable=0;" vertex="1" parent="FD6kAqHnBY0sS9sEwOvw-1">
                    <mxGeometry x="1308" y="347.38" width="10" height="10" as="geometry"/>
                </mxCell>
                <mxCell id="fg_xgXwE2P955qmjFdJ0-77" value="5" style="ellipse;whiteSpace=wrap;html=1;aspect=fixed;strokeWidth=2;fontFamily=Tahoma;spacingBottom=4;spacingRight=2;strokeColor=#d3d3d3;dashed=1;fontSize=4;movable=0;resizable=0;rotatable=0;deletable=0;editable=0;connectable=0;" vertex="1" parent="FD6kAqHnBY0sS9sEwOvw-1">
                    <mxGeometry x="1304" y="375" width="10" height="10" as="geometry"/>
                </mxCell>
                <mxCell id="fg_xgXwE2P955qmjFdJ0-78" value="&lt;span style=&quot;text-align: left;&quot;&gt;News Feed Building:&lt;/span&gt;" style="text;html=1;align=center;verticalAlign=middle;resizable=0;points=[];autosize=1;strokeColor=none;fillColor=none;fontSize=13;movable=0;rotatable=0;deletable=0;editable=0;connectable=0;" vertex="1" parent="FD6kAqHnBY0sS9sEwOvw-1">
                    <mxGeometry x="1120" y="43" width="137" height="28" as="geometry"/>
                </mxCell>
                <mxCell id="fg_xgXwE2P955qmjFdJ0-79" value="6&lt;br&gt;" style="ellipse;whiteSpace=wrap;html=1;aspect=fixed;strokeWidth=2;fontFamily=Tahoma;spacingBottom=4;spacingRight=2;strokeColor=#d3d3d3;dashed=1;fontSize=4;movable=0;resizable=0;rotatable=0;deletable=0;editable=0;connectable=0;" vertex="1" parent="FD6kAqHnBY0sS9sEwOvw-1">
                    <mxGeometry x="1314" y="192" width="10" height="10" as="geometry"/>
                </mxCell>
            </root>
        </mxGraphModel>
    </diagram>
    <diagram id="QDYa5YCyZXb-31ApRFl3" name="RATE LIMITER">
        <mxGraphModel dx="441" dy="308" grid="0" gridSize="10" guides="1" tooltips="1" connect="1" arrows="1" fold="1" page="1" pageScale="1" pageWidth="1100" pageHeight="850" math="0" shadow="0">
            <root>
                <mxCell id="0"/>
                <mxCell id="1" parent="0"/>
                <mxCell id="bRqP8Cj_3wBQg0PsMsQG-1" value="RATE LIMITER&lt;br&gt;&lt;div style=&quot;&quot;&gt;&lt;span style=&quot;background-color: initial;&quot;&gt;- To control the traffic sent by the client&lt;/span&gt;&lt;/div&gt;" style="text;html=1;align=left;verticalAlign=middle;resizable=1;points=[];autosize=1;strokeColor=none;fillColor=none;movable=1;rotatable=1;deletable=1;editable=1;connectable=1;" vertex="1" parent="1">
                    <mxGeometry x="19" y="8" width="223" height="41" as="geometry"/>
                </mxCell>
                <mxCell id="bRqP8Cj_3wBQg0PsMsQG-2" value="&lt;h1 style=&quot;font-size: 10px;&quot;&gt;Requirements:&lt;/h1&gt;&lt;p style=&quot;font-size: 10px;&quot;&gt;1.&amp;nbsp;Accurately limit excessive requests.&lt;br&gt;2. Low latency. The rate limiter should not slow down HTTP response time. &lt;br&gt;3. Use as little memory as possible. &lt;br&gt;4. Distributed rate limiting. The rate limiter can be shared across multiple servers or processes. &lt;br&gt;5. Exception handling. Show clear exceptions to users when their requests are throttled. &lt;br&gt;6. High fault tolerance. If there are any problems with the rate limiter (for example, a cache server goes offline), it does not affect the entire system.&lt;/p&gt;" style="text;html=1;strokeColor=none;fillColor=none;spacing=5;spacingTop=-20;whiteSpace=wrap;overflow=hidden;rounded=0;dashed=1;fontSize=10;" vertex="1" parent="1">
                    <mxGeometry x="12" y="57" width="365" height="135" as="geometry"/>
                </mxCell>
                <mxCell id="bRqP8Cj_3wBQg0PsMsQG-3" value="&lt;h1 style=&quot;font-size: 10px;&quot;&gt;Summaries:&lt;br&gt;&lt;span style=&quot;font-weight: normal;&quot;&gt;Algoritims&lt;/span&gt;&lt;/h1&gt;&lt;h1 style=&quot;font-size: 10px;&quot;&gt;&lt;span style=&quot;font-weight: normal;&quot;&gt;- Token Bucket&lt;br&gt;- Leaking Bucket&lt;br&gt;- Fixed Window&lt;br&gt;- Sliding Window Log&lt;br&gt;- Sliding Window Counter&lt;/span&gt;&lt;/h1&gt;&lt;div&gt;Hard Rate Limiting: The number of requests can't be exceeded within the threshold.&lt;br&gt;Soft Rate Limiting: Requests can exceed within the threshold within short period of time.&amp;nbsp;&lt;br&gt;Challenges of Rate Limiter in Distributed Environment: 1. Race Condition 2. Synchronization&amp;nbsp;&lt;br&gt;Monitoring: To check if the algorithm and rules are effective.&lt;br&gt;&lt;br&gt;&lt;br&gt;&lt;/div&gt;" style="text;html=1;strokeColor=none;fillColor=none;spacing=5;spacingTop=-20;whiteSpace=wrap;overflow=hidden;rounded=0;dashed=1;fontSize=10;" vertex="1" parent="1">
                    <mxGeometry x="19" y="208" width="397" height="209" as="geometry"/>
                </mxCell>
                <mxCell id="bRqP8Cj_3wBQg0PsMsQG-4" value="RATE LIMITER Detailed Design:" style="text;html=1;align=left;verticalAlign=middle;resizable=1;points=[];autosize=1;strokeColor=none;fillColor=none;movable=1;rotatable=1;deletable=1;editable=1;connectable=1;" vertex="1" parent="1">
                    <mxGeometry x="433" y="16" width="191" height="26" as="geometry"/>
                </mxCell>
                <mxCell id="bRqP8Cj_3wBQg0PsMsQG-20" style="edgeStyle=none;html=1;exitX=1;exitY=0.5;exitDx=0;exitDy=0;fontSize=10;" edge="1" parent="1" source="bRqP8Cj_3wBQg0PsMsQG-5" target="bRqP8Cj_3wBQg0PsMsQG-9">
                    <mxGeometry relative="1" as="geometry"/>
                </mxCell>
                <mxCell id="bRqP8Cj_3wBQg0PsMsQG-5" value="Client" style="rounded=1;whiteSpace=wrap;html=1;fontSize=13;fontColor=#FFFFFF;movable=1;resizable=1;rotatable=1;deletable=1;editable=1;connectable=1;" vertex="1" parent="1">
                    <mxGeometry x="443" y="88" width="107" height="60" as="geometry"/>
                </mxCell>
                <mxCell id="bRqP8Cj_3wBQg0PsMsQG-6" value="" style="sketch=0;pointerEvents=1;shadow=0;dashed=0;html=1;strokeColor=#82b366;fillColor=#d5e8d4;labelPosition=center;verticalLabelPosition=bottom;verticalAlign=top;align=center;outlineConnect=0;shape=mxgraph.veeam2.laptop;fontSize=13;movable=1;resizable=1;rotatable=1;deletable=1;editable=1;connectable=1;" vertex="1" parent="1">
                    <mxGeometry x="445" y="106" width="35" height="24" as="geometry"/>
                </mxCell>
                <mxCell id="bRqP8Cj_3wBQg0PsMsQG-7" value="" style="html=1;verticalLabelPosition=bottom;align=center;labelBackgroundColor=#ffffff;verticalAlign=top;strokeWidth=2;strokeColor=#82b366;shadow=0;dashed=0;shape=mxgraph.ios7.icons.smartphone;fontSize=13;movable=1;resizable=1;rotatable=1;deletable=1;editable=1;connectable=1;fillColor=#d5e8d4;" vertex="1" parent="1">
                    <mxGeometry x="523" y="103" width="18" height="30" as="geometry"/>
                </mxCell>
                <mxCell id="bRqP8Cj_3wBQg0PsMsQG-15" style="edgeStyle=none;html=1;exitX=1;exitY=0.5;exitDx=0;exitDy=0;entryX=0;entryY=0.5;entryDx=0;entryDy=0;entryPerimeter=0;fontSize=10;" edge="1" parent="1" source="bRqP8Cj_3wBQg0PsMsQG-9" target="bRqP8Cj_3wBQg0PsMsQG-14">
                    <mxGeometry relative="1" as="geometry"/>
                </mxCell>
                <mxCell id="bRqP8Cj_3wBQg0PsMsQG-21" style="edgeStyle=none;html=1;exitX=1;exitY=0.5;exitDx=0;exitDy=0;entryX=0;entryY=0.5;entryDx=0;entryDy=0;fontSize=10;" edge="1" parent="1" source="bRqP8Cj_3wBQg0PsMsQG-9" target="bRqP8Cj_3wBQg0PsMsQG-17">
                    <mxGeometry relative="1" as="geometry"/>
                </mxCell>
                <mxCell id="bRqP8Cj_3wBQg0PsMsQG-23" style="edgeStyle=none;html=1;exitX=1;exitY=0.5;exitDx=0;exitDy=0;entryX=0.004;entryY=0.233;entryDx=0;entryDy=0;entryPerimeter=0;fontSize=10;startArrow=classicThin;startFill=1;" edge="1" parent="1" source="bRqP8Cj_3wBQg0PsMsQG-9" target="bRqP8Cj_3wBQg0PsMsQG-22">
                    <mxGeometry relative="1" as="geometry"/>
                </mxCell>
                <mxCell id="bRqP8Cj_3wBQg0PsMsQG-24" style="edgeStyle=none;html=1;exitX=0.5;exitY=1;exitDx=0;exitDy=0;entryX=0.5;entryY=1;entryDx=0;entryDy=0;fontSize=10;startArrow=none;startFill=0;endArrow=classicThin;endFill=1;fillColor=#f8cecc;strokeColor=#b85450;" edge="1" parent="1" source="bRqP8Cj_3wBQg0PsMsQG-9" target="bRqP8Cj_3wBQg0PsMsQG-5">
                    <mxGeometry relative="1" as="geometry">
                        <Array as="points">
                            <mxPoint x="692" y="243"/>
                        </Array>
                    </mxGeometry>
                </mxCell>
                <mxCell id="bRqP8Cj_3wBQg0PsMsQG-9" value="" style="verticalLabelPosition=bottom;verticalAlign=top;html=1;shape=hexagon;perimeter=hexagonPerimeter2;arcSize=6;size=0.27;strokeColor=default;fontSize=10;" vertex="1" parent="1">
                    <mxGeometry x="640" y="88" width="100" height="60" as="geometry"/>
                </mxCell>
                <mxCell id="bRqP8Cj_3wBQg0PsMsQG-10" value="Rate Limiter Middleware" style="text;html=1;strokeColor=none;fillColor=none;align=center;verticalAlign=middle;whiteSpace=wrap;rounded=0;fontSize=10;" vertex="1" parent="1">
                    <mxGeometry x="660" y="103" width="60" height="30" as="geometry"/>
                </mxCell>
                <mxCell id="bRqP8Cj_3wBQg0PsMsQG-11" value="" style="rounded=1;whiteSpace=wrap;html=1;strokeColor=default;fontSize=7;movable=1;resizable=1;rotatable=1;deletable=1;editable=1;connectable=1;dashed=1;" vertex="1" parent="1">
                    <mxGeometry x="838" y="39" width="89.5" height="76" as="geometry"/>
                </mxCell>
                <mxCell id="bRqP8Cj_3wBQg0PsMsQG-12" value="" style="sketch=0;pointerEvents=1;shadow=0;dashed=0;html=1;strokeColor=none;fillColor=#505050;labelPosition=center;verticalLabelPosition=bottom;verticalAlign=top;outlineConnect=0;align=center;shape=mxgraph.office.servers.server_farm;fillColor=#7FBA42;fontSize=13;" vertex="1" parent="1">
                    <mxGeometry x="863" y="52" width="40" height="36" as="geometry"/>
                </mxCell>
                <mxCell id="bRqP8Cj_3wBQg0PsMsQG-13" value="Workers" style="text;html=1;strokeColor=none;fillColor=none;align=center;verticalAlign=middle;whiteSpace=wrap;rounded=0;fontSize=7;fontStyle=1;movable=1;resizable=1;rotatable=1;deletable=1;editable=1;connectable=1;" vertex="1" parent="1">
                    <mxGeometry x="853" y="88" width="60" height="30" as="geometry"/>
                </mxCell>
                <mxCell id="bRqP8Cj_3wBQg0PsMsQG-16" style="edgeStyle=none;html=1;exitX=1;exitY=0.5;exitDx=0;exitDy=0;exitPerimeter=0;entryX=0;entryY=0.5;entryDx=0;entryDy=0;fontSize=10;" edge="1" parent="1" source="bRqP8Cj_3wBQg0PsMsQG-14" target="bRqP8Cj_3wBQg0PsMsQG-11">
                    <mxGeometry relative="1" as="geometry"/>
                </mxCell>
                <mxCell id="bRqP8Cj_3wBQg0PsMsQG-14" value="Cache Rules" style="outlineConnect=0;dashed=0;verticalLabelPosition=bottom;verticalAlign=top;align=center;html=1;shape=mxgraph.aws3.cache_node;fillColor=#2E73B8;gradientColor=none;strokeColor=default;fontSize=7;" vertex="1" parent="1">
                    <mxGeometry x="775" y="85" width="26" height="23" as="geometry"/>
                </mxCell>
                <mxCell id="bRqP8Cj_3wBQg0PsMsQG-17" value="" style="rounded=1;whiteSpace=wrap;html=1;strokeColor=default;fontSize=7;movable=1;resizable=1;rotatable=1;deletable=1;editable=1;connectable=1;dashed=1;" vertex="1" parent="1">
                    <mxGeometry x="838" y="143" width="89.5" height="76" as="geometry"/>
                </mxCell>
                <mxCell id="bRqP8Cj_3wBQg0PsMsQG-18" value="" style="sketch=0;pointerEvents=1;shadow=0;dashed=0;html=1;strokeColor=none;fillColor=#505050;labelPosition=center;verticalLabelPosition=bottom;verticalAlign=top;outlineConnect=0;align=center;shape=mxgraph.office.servers.server_farm;fillColor=#7FBA42;fontSize=13;" vertex="1" parent="1">
                    <mxGeometry x="863" y="156" width="40" height="36" as="geometry"/>
                </mxCell>
                <mxCell id="bRqP8Cj_3wBQg0PsMsQG-19" value="API Servers" style="text;html=1;strokeColor=none;fillColor=none;align=center;verticalAlign=middle;whiteSpace=wrap;rounded=0;fontSize=7;fontStyle=1;movable=1;resizable=1;rotatable=1;deletable=1;editable=1;connectable=1;" vertex="1" parent="1">
                    <mxGeometry x="853" y="192" width="60" height="30" as="geometry"/>
                </mxCell>
                <mxCell id="bRqP8Cj_3wBQg0PsMsQG-22" value="Redis" style="sketch=0;aspect=fixed;html=1;points=[];align=center;image;fontSize=12;image=img/lib/mscae/Cache_Redis_Product.svg;strokeColor=default;" vertex="1" parent="1">
                    <mxGeometry x="827" y="233" width="32.86" height="27.6" as="geometry"/>
                </mxCell>
                <mxCell id="bRqP8Cj_3wBQg0PsMsQG-25" value="Rate Limited" style="text;html=1;align=center;verticalAlign=middle;resizable=0;points=[];autosize=1;strokeColor=none;fillColor=none;fontSize=10;" vertex="1" parent="1">
                    <mxGeometry x="688" y="169" width="74" height="24" as="geometry"/>
                </mxCell>
                <mxCell id="bRqP8Cj_3wBQg0PsMsQG-32" style="edgeStyle=none;html=1;fontSize=10;startArrow=classic;startFill=1;endArrow=none;endFill=0;dashed=1;" edge="1" parent="1" source="bRqP8Cj_3wBQg0PsMsQG-26">
                    <mxGeometry relative="1" as="geometry">
                        <mxPoint x="689.3542813387785" y="239.32480135830974" as="targetPoint"/>
                    </mxGeometry>
                </mxCell>
                <mxCell id="bRqP8Cj_3wBQg0PsMsQG-26" value="Request Droped" style="verticalLabelPosition=bottom;verticalAlign=top;html=1;shape=mxgraph.basic.drop;strokeColor=default;fontSize=10;" vertex="1" parent="1">
                    <mxGeometry x="603" y="283" width="28" height="44" as="geometry"/>
                </mxCell>
                <mxCell id="bRqP8Cj_3wBQg0PsMsQG-33" style="edgeStyle=none;html=1;exitX=0.5;exitY=0;exitDx=0;exitDy=0;exitPerimeter=0;fontSize=10;startArrow=classic;startFill=1;endArrow=none;endFill=0;dashed=1;" edge="1" parent="1" source="bRqP8Cj_3wBQg0PsMsQG-27">
                    <mxGeometry relative="1" as="geometry">
                        <mxPoint x="691.778523763021" y="238.71874075224912" as="targetPoint"/>
                    </mxGeometry>
                </mxCell>
                <mxCell id="bRqP8Cj_3wBQg0PsMsQG-27" value="" style="strokeWidth=2;html=1;shape=mxgraph.flowchart.direct_data;whiteSpace=wrap;dashed=1;fontSize=13;fontColor=#FFFFFF;rotation=0;flipH=1;movable=1;resizable=1;rotatable=1;deletable=1;editable=1;connectable=1;" vertex="1" parent="1">
                    <mxGeometry x="698" y="292.99999999999994" width="87.5" height="39.62" as="geometry"/>
                </mxCell>
                <mxCell id="bRqP8Cj_3wBQg0PsMsQG-28" value="" style="html=1;verticalLabelPosition=bottom;align=center;labelBackgroundColor=#ffffff;verticalAlign=top;strokeWidth=2;strokeColor=#0080F0;shadow=0;dashed=0;shape=mxgraph.ios7.icons.mail;fontSize=13;fontColor=#FFFFFF;movable=1;resizable=1;rotatable=1;deletable=1;editable=1;connectable=1;" vertex="1" parent="1">
                    <mxGeometry x="719.5" y="307.05999999999995" width="16" height="9.52" as="geometry"/>
                </mxCell>
                <mxCell id="bRqP8Cj_3wBQg0PsMsQG-29" value="Message Queue" style="text;html=1;strokeColor=none;fillColor=none;align=center;verticalAlign=middle;whiteSpace=wrap;rounded=0;dashed=1;fontSize=5;fontColor=#FFFFFF;movable=1;resizable=1;rotatable=1;deletable=1;editable=1;connectable=1;" vertex="1" parent="1">
                    <mxGeometry x="722.5" y="318.55999999999995" width="41.75" height="13.98" as="geometry"/>
                </mxCell>
                <mxCell id="bRqP8Cj_3wBQg0PsMsQG-30" value="" style="html=1;verticalLabelPosition=bottom;align=center;labelBackgroundColor=#ffffff;verticalAlign=top;strokeWidth=2;strokeColor=#0080F0;shadow=0;dashed=0;shape=mxgraph.ios7.icons.mail;fontSize=13;fontColor=#FFFFFF;movable=1;resizable=1;rotatable=1;deletable=1;editable=1;connectable=1;" vertex="1" parent="1">
                    <mxGeometry x="740.5" y="307.05999999999995" width="16" height="9.52" as="geometry"/>
                </mxCell>
                <mxCell id="bRqP8Cj_3wBQg0PsMsQG-31" value="" style="html=1;verticalLabelPosition=bottom;align=center;labelBackgroundColor=#ffffff;verticalAlign=top;strokeWidth=2;strokeColor=#0080F0;shadow=0;dashed=0;shape=mxgraph.ios7.icons.mail;fontSize=13;fontColor=#FFFFFF;movable=1;resizable=1;rotatable=1;deletable=1;editable=1;connectable=1;" vertex="1" parent="1">
                    <mxGeometry x="760.5" y="307.05999999999995" width="16" height="9.52" as="geometry"/>
                </mxCell>
                <mxCell id="bRqP8Cj_3wBQg0PsMsQG-36" value="" style="edgeStyle=none;html=1;dashed=1;fontSize=10;startArrow=classic;startFill=1;endArrow=none;endFill=0;" edge="1" parent="1" source="bRqP8Cj_3wBQg0PsMsQG-34" target="bRqP8Cj_3wBQg0PsMsQG-3">
                    <mxGeometry relative="1" as="geometry"/>
                </mxCell>
                <mxCell id="bRqP8Cj_3wBQg0PsMsQG-34" value="Option 1: (Dropped)&lt;br&gt;Return 429 error requests to Client&amp;nbsp;" style="text;html=1;align=center;verticalAlign=middle;resizable=0;points=[];autosize=1;strokeColor=none;fillColor=none;fontSize=10;" vertex="1" parent="1">
                    <mxGeometry x="508" y="236" width="175" height="36" as="geometry"/>
                </mxCell>
                <mxCell id="bRqP8Cj_3wBQg0PsMsQG-35" value="Option 2: (Forwarding)" style="text;html=1;align=center;verticalAlign=middle;resizable=0;points=[];autosize=1;strokeColor=none;fillColor=none;fontSize=10;" vertex="1" parent="1">
                    <mxGeometry x="704" y="234.8" width="118" height="24" as="geometry"/>
                </mxCell>
            </root>
        </mxGraphModel>
    </diagram>
</mxfile>